<?xml version="1.0" standalone="no"?><!DOCTYPE svg PUBLIC "-//W3C//DTD SVG 1.1//EN"
        "http://www.w3.org/Graphics/SVG/1.1/DTD/svg11.dtd">
<svg t="1593178051180" class="icon" viewBox="0 0 1024 1024" version="1.1" xmlns="http://www.w3.org/2000/svg"
     p-id="11580" xmlns:xlink="http://www.w3.org/1999/xlink" width="100" height="100">
    <defs>
        <style type="text/css"></style>
    </defs>
    <path d="M540.125 547.44189453V765.125a28.125 28.125 0 0 1-28.125 28.125 27.57568359 27.57568359 0 0 1-28.125-28.125V547.44189453L287 433.80986329a28.125 28.125 0 0 1-10.12939453-38.24296876A27.56513673 27.56513673 0 0 1 315.125 385.4375l196.875 112.5 195.18310547-112.5a27.56513673 27.56513673 0 0 1 38.25439453 10.12939453 28.11445313 28.11445313 0 0 1-10.12939453 38.24384766L540.125 546.31074219z m0 0"
          fill="#ffffff" p-id="11581"></path>
    <path d="M118.25 287v450l393.75 225 393.75-225V287L512 62z m731.25 421.875L512 905.75 174.5 708.875V315.125L512 118.25l337.5 196.875z m0 0"
          fill="#ffffff" p-id="11582"></path>
</svg>