<?xml version="1.0" standalone="no"?><!DOCTYPE svg PUBLIC "-//W3C//DTD SVG 1.1//EN"
        "http://www.w3.org/Graphics/SVG/1.1/DTD/svg11.dtd">
<svg t="1593177755485" class="icon" viewBox="0 0 1024 1024" version="1.1" xmlns="http://www.w3.org/2000/svg" p-id="2871"
     xmlns:xlink="http://www.w3.org/1999/xlink" width="100" height="100">
    <defs>
        <style type="text/css"></style>
    </defs>
    <path d="M95.744 572.928c17.92 0 31.744-13.824 31.744-30.208V207.872h607.744c17.92 0 32.256-13.824 32.256-30.208 0-16.896-14.336-30.208-32.256-30.208H128c-35.328 0-64 27.136-64 60.928v334.848c0 15.872 14.336 29.696 31.744 29.696z m832-182.784c-17.92 0-31.744 13.824-31.744 30.208v456.704H159.744c-17.92 0-32.256 13.824-32.256 30.208 0 16.896 14.336 30.208 32.256 30.208H896c35.328 0 64-27.136 64-60.928v-455.68c0-16.896-14.336-30.72-32.256-30.72z"
          fill="#ffffff" p-id="2872"></path>
    <path d="M292.864 448.512l-163.84 190.976c-10.24-4.096-21.504-6.144-33.28-6.144-50.688 0-92.16 41.472-92.16 92.16s41.472 92.16 92.16 92.16 92.16-41.472 92.16-92.16c0-18.432-5.632-35.328-14.848-49.664l162.816-189.952-43.008-37.376z m-197.12 317.952c-22.528 0-40.96-18.432-40.96-40.96s18.432-40.96 40.96-40.96 40.96 18.432 40.96 40.96-18.432 40.96-40.96 40.96zM925.696 241.152l-50.688-26.624-187.904 359.424c-5.12-1.024-9.728-1.536-15.36-1.536-19.456 0-37.888 6.144-52.736 16.896L424.96 436.224 389.632 481.28l195.072 154.112c-3.072 9.216-5.12 19.456-5.12 29.696 0 50.688 41.472 92.16 92.16 92.16s92.16-41.472 92.16-92.16c0-25.088-10.24-47.616-26.112-64.512l187.904-359.424z m-253.952 464.384c-22.528 0-40.96-18.432-40.96-40.96s18.432-40.96 40.96-40.96 40.96 18.432 40.96 40.96-18.432 40.96-40.96 40.96z"
          fill="#ffffff" p-id="2873"></path>
    <path d="M928.256 85.504c-50.688 0-92.16 41.472-92.16 92.16s41.472 92.16 92.16 92.16 92.16-41.472 92.16-92.16-41.472-92.16-92.16-92.16z m0 133.12c-22.528 0-40.96-18.432-40.96-40.96s18.432-40.96 40.96-40.96 40.96 18.432 40.96 40.96-18.432 40.96-40.96 40.96z"
          fill="#ffffff" p-id="2874"></path>
    <path d="M351.744 328.704c-50.688 0-92.16 41.472-92.16 92.16s41.472 92.16 92.16 92.16 92.16-41.472 92.16-92.16-41.472-92.16-92.16-92.16z m0 133.12c-22.528 0-40.96-18.432-40.96-40.96s18.432-40.96 40.96-40.96 40.96 18.432 40.96 40.96-18.432 40.96-40.96 40.96z"
          fill="#ffffff" p-id="2875"></path>
</svg>