<?xml version="1.0" standalone="no"?><!DOCTYPE svg PUBLIC "-//W3C//DTD SVG 1.1//EN"
        "http://www.w3.org/Graphics/SVG/1.1/DTD/svg11.dtd">
<svg t="1591618151523" class="icon" viewBox="0 0 1024 1024" version="1.1" xmlns="http://www.w3.org/2000/svg"
     p-id="11587" xmlns:xlink="http://www.w3.org/1999/xlink" width="100" height="100">
    <defs>
        <style type="text/css"></style>
    </defs>
    <path d="M768 981.312H170.688c-72.576 0-128-55.424-128-128V256c0-72.512 55.424-128 128-128H396.8c25.6 0 42.688 17.088 42.688 42.688s-17.088 42.624-42.688 42.624H170.688C145.088 213.312 128 230.4 128 256v597.312c0 25.6 17.088 42.688 42.688 42.688H768c25.6 0 42.688-17.088 42.688-42.688V627.2c0-25.6 17.024-42.688 42.624-42.688S896 601.6 896 627.2v226.112c0 72.576-55.488 128-128 128z"
          p-id="11588" fill="#ffffff"></path>
    <path d="M512 725.312H341.312c-25.6 0-42.624-17.024-42.624-42.624V512c0-12.8 4.224-21.312 12.8-29.888L738.112 55.488a41.216 41.216 0 0 1 59.776 0l170.624 170.624a41.216 41.216 0 0 1 0 59.776l-426.624 426.624a38.72 38.72 0 0 1-29.888 12.8zM384 640h110.912l384-384L768 145.088l-384 384V640z"
          p-id="11589" fill="#ffffff"></path>
</svg>