<?xml version="1.0" standalone="no"?><!DOCTYPE svg PUBLIC "-//W3C//DTD SVG 1.1//EN" "http://www.w3.org/Graphics/SVG/1.1/DTD/svg11.dtd"><svg t="1591618605564" class="icon" viewBox="0 0 1056 1024" version="1.1" xmlns="http://www.w3.org/2000/svg" p-id="24828" xmlns:xlink="http://www.w3.org/1999/xlink" width="103.125" height="100"><defs><style type="text/css"></style></defs><path d="M784.818005 488.94136h-417.766352l2.578804-28.366851a206.304371 206.304371 0 0 1 412.608743 0z m-357.938085-51.576092h298.109817a154.728279 154.728279 0 0 0-298.109817 0zM956.566394 333.18156L928.715304 291.404925a430.660375 430.660375 0 0 0-176.905999-145.960343l-56.217941-25.272286 57.249463-22.69348c121.203818-47.450005 180.000564-23.725003 206.304372 4.126087s48.481527 78.395661 13.409784 182.579369z m-128.940232-206.304372a485.331034 485.331034 0 0 1 108.825556 91.805446 92.836967 92.836967 0 0 0-13.409784-81.490227A103.152186 103.152186 0 0 0 825.563118 127.90871zM202.008155 979.945765a118.109253 118.109253 0 0 1-87.163597-31.461417c-46.418484-46.418484-41.260874-135.645124 14.957067-251.175572l25.272286-51.576093 21.661959 54.670658a434.270702 434.270702 0 0 0 166.075019 202.178284l40.745113 26.303808-44.35544 19.083154a384.757653 384.757653 0 0 1-123.266862 33.008699z m-47.450005-206.304372c-23.725003 66.017399-25.272286 118.109253-2.578805 140.802734a76.848378 76.848378 0 0 0 61.375551 15.988588 269.742966 269.742966 0 0 0 62.407072-12.894023A488.94136 488.94136 0 0 1 155.073911 768.999545z" fill="#ffffff" p-id="24829"></path><path d="M179.830435 1023.785443a187.221217 187.221217 0 0 1-138.223928-51.576092 176.390238 176.390238 0 0 1-41.260875-124.814145 545.159302 545.159302 0 0 1 29.914134-171.232628A882.466949 882.466949 0 0 1 74.615206 567.337022l-3.094566 4.126087 37.650548-151.117952a480.689186 480.689186 0 0 1 464.184836-363.611455h28.366851c165.043497-69.627725 308.940796-75.816857 370.316347-14.957067a185.673934 185.673934 0 0 1 51.576093 126.361428A385.273414 385.273414 0 0 1 999.374551 309.456557a481.720707 481.720707 0 0 1 57.249463 227.45057 499.256579 499.256579 0 0 1-2.578804 54.670658l-3.094566 29.398373H423.785355a164.011975 164.011975 0 0 0 304.814709 45.386962l7.220653-13.409784 17.535871-3.610327h292.952208l-14.957067 43.839679a480.689186 480.689186 0 0 1-454.901139 325.445146 474.500054 474.500054 0 0 1-203.209806-44.871201 464.184836 464.184836 0 0 1-193.410349 50.02881z m309.456558-879.888144L346.421215 286.763076l-29.398373 29.914134a1031.521857 1031.521857 0 0 0-149.570669 188.7685 897.939777 897.939777 0 0 0-88.195119 187.221217 493.583209 493.583209 0 0 0-27.85109 154.728279 129.971754 129.971754 0 0 0 26.819568 88.71088c51.576093 51.576093 154.728279 47.450005 283.15275-14.441306l11.346741-5.673371 11.34674 5.673371a422.408201 422.408201 0 0 0 191.347305 44.8712 429.113093 429.113093 0 0 0 396.620154-265.616878h-206.304372a215.072307 215.072307 0 0 1-398.683197-103.152186v-26.819568h636.964746v-32.492938a429.628854 429.628854 0 0 0-55.186419-213.525025l-5.67337-10.315218 4.126087-11.346741a346.075583 346.075583 0 0 0 24.756525-133.06632 135.645124 135.645124 0 0 0-36.619026-92.321206c-45.386962-44.871201-175.358716-33.008699-316.161449 28.882612h-42.808157A427.050049 427.050049 0 0 0 309.802189 200.631001a432.207658 432.207658 0 0 0-115.014687 138.73969A601.377243 601.377243 0 0 1 314.959799 246.017963z" fill="#ffffff" p-id="24830"></path></svg>