<?xml version="1.0" standalone="no"?><!DOCTYPE svg PUBLIC "-//W3C//DTD SVG 1.1//EN"
        "http://www.w3.org/Graphics/SVG/1.1/DTD/svg11.dtd">
<svg t="1591618738863" class="icon" viewBox="0 0 1024 1024" version="1.1" xmlns="http://www.w3.org/2000/svg"
     p-id="29018" xmlns:xlink="http://www.w3.org/1999/xlink" width="100" height="100">
    <defs>
        <style type="text/css"></style>
    </defs>
    <path d="M810.666667 0a128 128 0 0 1 128 128v768a128 128 0 0 1-128 128H213.333333a128 128 0 0 1-128-128V128a128 128 0 0 1 128-128z m0 85.333333l-46.933334-0.042666V315.733333a106.666667 106.666667 0 0 1-99.669333 106.453334L657.066667 422.4h-34.133334a106.666667 106.666667 0 0 1-106.666666-106.666667V85.290667L213.333333 85.333333a42.666667 42.666667 0 0 0-42.368 37.674667L170.666667 128v768a42.666667 42.666667 0 0 0 42.666666 42.666667h597.333334a42.666667 42.666667 0 0 0 42.666666-42.666667V128a42.666667 42.666667 0 0 0-42.666666-42.666667zM490.666667 746.666667a42.666667 42.666667 0 0 1 0 85.333333h-170.666667a42.666667 42.666667 0 0 1 0-85.333333h170.666667z m196.266666-661.376h-93.866666V315.733333a29.866667 29.866667 0 0 0 25.813333 29.610667l4.053333 0.256h34.133334a29.866667 29.866667 0 0 0 29.866666-29.866667V85.290667z"
          fill="#ffffff" p-id="29019"></path>
</svg>