<?xml version="1.0" standalone="no"?><!DOCTYPE svg PUBLIC "-//W3C//DTD SVG 1.1//EN" "http://www.w3.org/Graphics/SVG/1.1/DTD/svg11.dtd"><svg t="1591619011492" class="icon" viewBox="0 0 1024 1024" version="1.1" xmlns="http://www.w3.org/2000/svg" p-id="11914" xmlns:xlink="http://www.w3.org/1999/xlink" width="100" height="100"><defs><style type="text/css"></style></defs><path d="M85.333333 170.666667a128 128 0 0 1 128-128h597.333334a128 128 0 0 1 128 128v128a42.666667 42.666667 0 1 1-85.333334 0V170.666667a42.666667 42.666667 0 0 0-42.666666-42.666667H213.333333a42.666667 42.666667 0 0 0-42.666666 42.666667v723.669333l324.010666-144a42.666667 42.666667 0 0 1 34.645334 0L853.333333 894.336V469.333333a42.666667 42.666667 0 1 1 85.333334 0v425.002667a85.333333 85.333333 0 0 1-119.978667 77.994667L512 836.010667 205.312 972.373333A85.333333 85.333333 0 0 1 85.333333 894.293333V170.666667z" fill="#ffffff" p-id="11915"></path><path d="M512 213.333333a42.666667 42.666667 0 0 1 38.272 23.765334l52.736 106.922666 118.016 17.152a42.666667 42.666667 0 0 1 23.637333 72.789334l-85.333333 83.2 20.096 117.546666a42.666667 42.666667 0 0 1-61.866667 44.970667L512 624.213333l-105.557333 55.466667a42.666667 42.666667 0 0 1-61.866667-44.970667l20.138667-117.504-85.376-83.242666A42.666667 42.666667 0 0 1 302.933333 361.173333l117.973334-17.152 52.778666-106.922666A42.666667 42.666667 0 0 1 512 213.333333z m0 139.093334l-24.448 49.493333a42.666667 42.666667 0 0 1-32.128 23.338667l-54.613333 7.936 39.509333 38.528a42.666667 42.666667 0 0 1 12.288 37.802666l-9.344 54.4 48.896-25.685333a42.666667 42.666667 0 0 1 39.68 0l48.896 25.685333-9.344-54.4a42.666667 42.666667 0 0 1 12.288-37.802666l39.509333-38.528-54.613333-7.936a42.666667 42.666667 0 0 1-32.128-23.338667L512 352.426667z" fill="#ffffff" p-id="11916"></path></svg>