<?xml version="1.0" standalone="no"?><!DOCTYPE svg PUBLIC "-//W3C//DTD SVG 1.1//EN" "http://www.w3.org/Graphics/SVG/1.1/DTD/svg11.dtd"><svg t="1591619604165" class="icon" viewBox="0 0 1024 1024" version="1.1" xmlns="http://www.w3.org/2000/svg" p-id="21029" xmlns:xlink="http://www.w3.org/1999/xlink" width="100" height="100"><defs><style type="text/css"></style></defs><path d="M327.68 585.728c60.269714 0 109.202286 49.005714 109.202286 109.568v219.136c0 60.489143-48.932571 109.568-109.202286 109.568H109.202286C49.005714 1024 0 974.994286 0 914.432V695.296c0-60.489143 48.932571-109.568 109.202286-109.568H327.68z m546.011429 0c60.342857 0 109.275429 49.005714 109.275428 109.568v219.136c0 60.489143-48.932571 109.568-109.275428 109.568H655.36c-60.342857 0-109.202286-49.005714-109.202286-109.568V695.296c0-60.489143 48.859429-109.568 109.202286-109.568h218.404571z m-546.011429 73.069714H109.202286a36.498286 36.498286 0 0 0-36.425143 36.498286v219.136c0 20.187429 16.310857 36.571429 36.425143 36.571429H327.68a36.498286 36.498286 0 0 0 36.352-36.571429V695.296c0-20.187429-16.310857-36.571429-36.352-36.571429z m546.011429 0H655.36a36.498286 36.498286 0 0 0-36.425143 36.498286v219.136c0 20.187429 16.310857 36.571429 36.425143 36.571429h218.404571a36.498286 36.498286 0 0 0 36.425143-36.571429V695.296c0-20.187429-16.310857-36.571429-36.425143-36.571429zM837.339429 32.621714l154.916571 154.916572c42.788571 42.788571 42.934857 112.054857 0.219429 154.697143l-154.404572 154.477714a109.421714 109.421714 0 0 1-154.697143-0.292572L528.384 341.577143a109.421714 109.421714 0 0 1-0.219429-154.697143L682.569143 32.329143a109.421714 109.421714 0 0 1 154.770286 0.292571zM327.68 37.888c60.269714 0 109.202286 49.005714 109.202286 109.568v219.136c0 60.489143-48.932571 109.568-109.202286 109.568H109.202286C49.005714 476.16 0 427.154286 0 366.592V147.456C0 86.966857 48.932571 37.888 109.202286 37.888H327.68z m406.601143 46.08L579.803429 238.445714a36.498286 36.498286 0 0 0 0.073142 51.565715l154.989715 154.989714c14.262857 14.262857 37.302857 14.262857 51.565714 0l154.404571-154.404572a36.498286 36.498286 0 0 0 0-51.565714l-155.062857-154.989714a36.498286 36.498286 0 0 0-51.492571 0z m-406.674286 26.989714H109.275429a36.498286 36.498286 0 0 0-36.425143 36.498286v219.136c0 20.187429 16.310857 36.571429 36.425143 36.571429H327.68a36.498286 36.498286 0 0 0 36.352-36.571429V147.456c0-20.187429-16.310857-36.571429-36.352-36.571429z" p-id="21030" fill="#ffffff"></path></svg>