<?xml version="1.0" standalone="no"?><!DOCTYPE svg PUBLIC "-//W3C//DTD SVG 1.1//EN" "http://www.w3.org/Graphics/SVG/1.1/DTD/svg11.dtd"><svg t="1591617483900" class="icon" viewBox="0 0 1024 1024" version="1.1" xmlns="http://www.w3.org/2000/svg" p-id="7407" xmlns:xlink="http://www.w3.org/1999/xlink" width="100" height="100"><defs><style type="text/css"></style></defs><path d="M776.18 239.54h-135.4l61.35-61.35c10.58-10.58 10.58-25.39 0-35.97-10.58-10.58-25.39-10.58-35.97 0L562.5 245.89H460.95L357.28 142.23c-8.46-10.58-21.16-12.69-33.85-6.35-2.12 0-2.12 2.12-4.23 4.23-10.58 10.58-10.58 25.39 0 35.97l63.47 63.47h-135.4c-74.05 0-135.4 61.35-135.4 135.4v336.38c0 71.93 61.35 133.28 135.4 133.28h21.16c0 25.39 21.16 44.43 44.43 44.43s44.43-21.16 44.43-44.43H670.4c2.12 25.39 23.27 44.43 48.66 42.31 23.27-2.12 40.2-19.04 42.31-42.31h16.92c74.05 0 135.4-61.35 135.4-135.4V372.83c-2.11-74.05-63.47-133.29-137.51-133.29z m-4.23 522.56H255.74c-27.5 0-48.66-23.27-50.77-50.77l-2.12-342.73c0-27.5 23.27-50.77 50.77-50.77h516.21c27.5 0 48.66 23.27 50.77 50.77l2.12 342.73c-2.12 29.61-23.27 50.77-50.77 50.77z" p-id="7408" fill="#ffffff"></path><path d="M422.87 434.18l12.69 63.47-169.25 31.73-12.69-63.47 169.25-31.73z m162.9 63.47l12.69-63.47 169.25 31.73-12.69 63.47-169.25-31.73z m33.85 133.28c0 2.12 0 6.35-2.12 8.46-10.58 23.27-33.85 38.08-61.35 40.2-16.92 0-33.85-8.46-44.43-21.16-12.69 12.69-27.5 21.16-44.43 21.16-25.39-2.12-48.66-16.92-61.35-40.2 0-2.12-2.12-4.23-2.12-8.46 0-8.46 6.35-14.81 14.81-16.92h2.12c6.35 0 10.58 2.12 12.69 8.46 0 0 16.92 23.27 31.73 23.27 29.62 0 29.62-25.39 46.54-44.43 19.04 21.16 19.04 44.43 46.54 44.43 19.04 0 31.73-23.27 31.73-23.27 2.12-4.23 8.46-8.46 12.69-8.46 8.46-2.12 14.81 4.23 16.92 12.69v4.23h0.03z" p-id="7409" fill="#ffffff"></path></svg>