<?xml version="1.0" standalone="no"?><!DOCTYPE svg PUBLIC "-//W3C//DTD SVG 1.1//EN" "http://www.w3.org/Graphics/SVG/1.1/DTD/svg11.dtd"><svg t="1591617570033" class="icon" viewBox="0 0 1024 1024" version="1.1" xmlns="http://www.w3.org/2000/svg" p-id="9348" xmlns:xlink="http://www.w3.org/1999/xlink" width="100" height="100"><defs><style type="text/css"></style></defs><path d="M512 945.632653a433.214694 433.214694 0 0 1-398.942041-263.418775 20.897959 20.897959 0 0 1 38.452245-16.404898 391.941224 391.941224 0 0 0 745.325714-79.412245 20.897959 20.897959 0 0 1 41.06449 7.941224A433.946122 433.946122 0 0 1 512 945.632653zM104.489796 470.204082h-3.134694A20.897959 20.897959 0 0 1 83.591837 446.171429a433.737143 433.737143 0 0 1 821.707755-117.133062A20.897959 20.897959 0 1 1 867.265306 346.697143 391.941224 391.941224 0 0 0 124.656327 452.440816 20.897959 20.897959 0 0 1 104.489796 470.204082z" p-id="9349" fill="#ffffff"></path><path d="M514.612245 341.368163c-38.452245 0-81.084082-16.927347-89.652245-54.752653a10.44898 10.44898 0 1 1 20.897959-4.597551c5.955918 26.435918 40.124082 38.452245 69.276735 38.452245s62.693878-12.120816 68.649796-38.347755a10.44898 10.44898 0 1 1 20.897959 4.597551c-9.090612 37.198367-51.722449 54.648163-90.070204 54.648163zM594.02449 760.581224a10.44898 10.44898 0 0 1-10.44898-8.150204c-5.955918-26.435918-40.124082-38.452245-69.276734-38.452244s-63.007347 12.120816-68.963266 38.347755a10.44898 10.44898 0 1 1-20.897959-4.597551c8.568163-37.825306 51.2-54.752653 89.652245-54.752653S595.591837 710.530612 604.16 747.833469a10.44898 10.44898 0 0 1-7.836735 12.538776zM745.221224 490.161633c-31.346939 0-59.768163-26.122449-75.337142-55.484082-18.076735-33.959184-23.092245-79.516735 6.269387-104.489796A10.44898 10.44898 0 1 1 689.632653 345.652245c-20.897959 17.658776-15.15102 53.498776-1.462857 79.203265s40.333061 50.259592 66.45551 43.154286a10.44898 10.44898 0 1 1 5.537959 20.166531 57.469388 57.469388 0 0 1-14.942041 1.985306zM346.174694 707.082449a10.44898 10.44898 0 0 1-6.791837-18.390204c20.897959-17.658776 15.15102-53.498776 1.462857-79.203265s-40.333061-50.259592-66.45551-43.154286a10.44898 10.44898 0 0 1-5.537959-20.166531c37.511837-10.44898 72.411429 19.539592 90.383673 53.498776s23.092245 79.516735-6.269387 104.489796a10.44898 10.44898 0 0 1-6.791837 2.925714zM288.705306 477.936327a57.051429 57.051429 0 0 1-17.972245-2.925715 10.44898 10.44898 0 1 1 6.582857-19.853061c25.70449 8.463673 53.603265-14.524082 68.649796-39.497143s22.256327-60.395102 2.716735-79.203265a10.44898 10.44898 0 0 1 14.419592-15.046531c28.003265 26.853878 20.897959 72.097959 0.626939 105.012245-16.404898 27.585306-44.721633 51.513469-75.023674 51.51347zM673.123265 715.859592a10.44898 10.44898 0 0 1-7.209796-2.925714c-28.003265-26.853878-20.897959-72.097959-0.626938-105.012245s56.32-60.708571 93.100408-48.587755a10.44898 10.44898 0 0 1-6.582857 19.853061c-25.70449-8.463673-53.603265 14.524082-68.649796 39.497143s-22.256327 60.395102-2.716735 79.203265a10.44898 10.44898 0 0 1-7.209796 17.972245zM512 640.626939a128 128 0 1 1 128.313469-128.10449A128.20898 128.20898 0 0 1 512 640.626939z m0-214.308572a86.204082 86.204082 0 1 0 86.204082 86.204082A86.308571 86.308571 0 0 0 512 426.318367zM99.265306 611.265306a83.591837 83.591837 0 1 1 83.591837-83.591837 83.591837 83.591837 0 0 1-83.591837 83.591837z m0-125.387755a41.795918 41.795918 0 1 0 41.795918 41.795918 41.795918 41.795918 0 0 0-41.795918-41.795918zM924.734694 595.591837a83.591837 83.591837 0 1 1 83.591837-83.591837 83.591837 83.591837 0 0 1-83.591837 83.591837z m0-125.387755a41.795918 41.795918 0 1 0 41.795918 41.795918 41.795918 41.795918 0 0 0-41.795918-41.795918z" p-id="9350" fill="#ffffff"></path></svg>