<?xml version="1.0" standalone="no"?><!DOCTYPE svg PUBLIC "-//W3C//DTD SVG 1.1//EN" "http://www.w3.org/Graphics/SVG/1.1/DTD/svg11.dtd"><svg t="1591617951828" class="icon" viewBox="0 0 1024 1024" version="1.1" xmlns="http://www.w3.org/2000/svg" p-id="5603" xmlns:xlink="http://www.w3.org/1999/xlink" width="100" height="100"><defs><style type="text/css"></style></defs><path d="M334.1 224c-61.8 0-112 50.1-112 112s50.1 112 112 112 112-50.1 112-112-50.1-112-112-112z m0 160c-26.5 0-48-21.5-48-48s21.5-48 48-48 48 21.5 48 48-21.5 48-48 48z" p-id="5604" fill="#ffffff"></path><path d="M858.4 95.9H171.6c-40 0-72.5 32.6-72.5 72.5v686.8c0 40 32.5 72.5 72.5 72.5h686.9c39.9 0 72.4-32.5 72.4-72.5V168.4c0-40-32.5-72.5-72.5-72.5z m8.5 759.4c0 4.6-3.9 8.5-8.5 8.5H171.6c-4.6 0-8.5-3.9-8.5-8.5V168.5c0-4.6 3.9-8.5 8.5-8.5v-0.1h686.8c4.6 0 8.5 3.9 8.5 8.5v686.9z" p-id="5605" fill="#ffffff"></path><path d="M770.9 735h-214c-17.6 0-32 14.4-32 32s14.4 32 32 32h214c17.6 0 32-14.4 32-32s-14.4-32-32-32z" p-id="5606" fill="#ffffff"></path></svg>