<?xml version="1.0" standalone="no"?><!DOCTYPE svg PUBLIC "-//W3C//DTD SVG 1.1//EN" "http://www.w3.org/Graphics/SVG/1.1/DTD/svg11.dtd"><svg t="1591618052525" class="icon" viewBox="0 0 1024 1024" version="1.1" xmlns="http://www.w3.org/2000/svg" p-id="8723" xmlns:xlink="http://www.w3.org/1999/xlink" width="100" height="100"><defs><style type="text/css"></style></defs><path d="M737 422a74.76 74.76 0 0 0-74.43 69.42l-64.71 7.86a104.61 104.61 0 0 0-48.63-62.91l26.79-75.51c3.6 0.57 7.2 1.14 10.98 1.14A75 75 0 1 0 512 287c0 26.46 13.77 49.59 34.44 62.97l-26.49 74.73A103.11 103.11 0 0 0 497 422c-35.43 0-66.6 17.67-85.62 44.52l-54.42-33.09c3.12-8.25 5.04-17.07 5.04-26.43a75 75 0 1 0-21.66 52.65l57.3 34.83A104.22 104.22 0 0 0 392 527c0 26.97 10.47 51.33 27.18 69.93l-57.6 50.04A74.34 74.34 0 0 0 317 632a75 75 0 1 0 75 75c0-13.41-3.81-25.8-9.96-36.69l61.47-53.4A103.86 103.86 0 0 0 497 632c15.9 0 30.78-3.78 44.31-10.11l49.05 66.48A74.16 74.16 0 0 0 572 737a75 75 0 1 0 75-75c-11.52 0-22.26 2.82-32.01 7.44l-47.82-64.83a104.04 104.04 0 0 0 34.53-74.76l64.86-7.92A74.79 74.79 0 0 0 812 497a75 75 0 0 0-75-75z" p-id="8724" fill="#ffffff"></path></svg>