<?xml version="1.0" standalone="no"?><!DOCTYPE svg PUBLIC "-//W3C//DTD SVG 1.1//EN" "http://www.w3.org/Graphics/SVG/1.1/DTD/svg11.dtd"><svg t="1591618090560" class="icon" viewBox="0 0 1024 1024" version="1.1" xmlns="http://www.w3.org/2000/svg" p-id="9598" xmlns:xlink="http://www.w3.org/1999/xlink" width="100" height="100"><defs><style type="text/css"></style></defs><path d="M719.8 682.9c0 37.4-9.9 73.2-28.3 104.7-18 30.8-43.8 56.6-74.7 74.6-20.5 12-42.8 20.3-66.1 24.7V483.5c0-4.5-3.7-8.1-8.1-8.1h-61.1c-4.5 0-8.2 3.7-8.2 8.1v403.4c-23.3-4.4-45.6-12.7-66.1-24.7-30.9-18-56.6-43.7-74.7-74.6-18.4-31.4-28.3-67.2-28.3-104.7V410.3h415.7v272.6zM948 512H797.3V410.3c78.2 0 141.6-63.3 141.6-141.4 0-4.5-3.7-8.1-8.1-8.1h-61.1c-4.5 0-8.2 3.7-8.2 8.1 0 35.4-28.7 64.1-64.2 64.1H226.7c-35.5 0-64.2-28.7-64.2-64.1 0-4.5-3.7-8.1-8.1-8.1H93.3c-4.5 0-8.1 3.7-8.1 8.1 0 78.1 63.4 141.4 141.6 141.4V512H76c-4.5 0-8.1 3.7-8.1 8.1v57c0 4.5 3.7 8.1 8.1 8.1h150.8v97.7c0 6.6 0.2 13.2 0.7 19.6-69.9 29.8-118.9 99.1-118.9 179.8 0 4.5 3.7 8.1 8.1 8.1h57.1c4.5 0 8.2-3.7 8.2-8.1 0-45 24.3-84.3 60.7-105.5 6.1 17.5 13.9 34.2 23.1 49.8 24.8 42.2 60.1 77.5 102.4 102.2 42.3 24.7 91.4 38.9 143.9 38.9s101.7-14.1 144-38.9c42.3-24.7 77.6-60 102.4-102.2 9.3-15.8 17-32.5 23.1-49.8 36.3 21.2 60.6 60.5 60.6 105.5 0 4.5 3.7 8.1 8.1 8.1h57.1c4.5 0 8.2-3.7 8.2-8.1 0-80.7-49-150-118.9-179.8 0.4-6.5 0.7-13 0.7-19.6v-97.7H948c4.5 0 8.2-3.7 8.2-8.1v-57c0-4.4-3.7-8.1-8.2-8.1z" p-id="9599" fill="#ffffff"></path><path d="M291.9 267.8c0-40.7 9-78 26.4-110 17.5-32 43.3-57.8 75.4-75.3 32-17.4 69.4-26.3 110.1-26.3h16.3c40.8 0 78.1 9 110.1 26.3 32.1 17.5 57.9 43.2 75.4 75.3 17.4 31.9 26.4 69.3 26.4 110 0 4.5-3.7 8.1-8.2 8.1h-57.1c-4.5 0-8.1-3.7-8.1-8.1 0-28.8-6.1-54-17.4-74.8-10.8-19.7-26.5-35.4-46.3-46.2-20.7-11.4-46-17.4-74.9-17.4h-16.3c-28.8 0-54.1 6.1-74.9 17.4-19.8 10.8-35.5 26.4-46.3 46.2-11.4 20.6-17.4 46-17.4 74.8 0 4.5-3.7 8.1-8.2 8.1h-57.1c-4.2 0.1-7.9-3.6-7.9-8.1z" p-id="9600" fill="#ffffff"></path></svg>