<?xml version="1.0" standalone="no"?><!DOCTYPE svg PUBLIC "-//W3C//DTD SVG 1.1//EN" "http://www.w3.org/Graphics/SVG/1.1/DTD/svg11.dtd"><svg t="1592654501044" class="icon" viewBox="0 0 1024 1024" version="1.1" xmlns="http://www.w3.org/2000/svg" p-id="1772" xmlns:xlink="http://www.w3.org/1999/xlink" width="100" height="100"><defs><style type="text/css"></style></defs><path d="M531.3 40.8c11.3 19.6 4.6 44.6-15 55.9L126.9 321.6c-19.6 11.3-44.6 4.6-55.9-15-11.3-19.6-4.6-44.6 15-55.9L475.4 25.8c19.6-11.3 44.6-4.6 55.9 15z" fill="#3396fb" p-id="1773"></path><path d="M459.3 40.8c-11.3 19.6-4.6 44.6 15 55.9l393.3 227.1c19.6 11.3 44.6 4.6 55.9-15 11.3-19.6 4.6-44.6-15-55.9L515.3 25.8c-19.6-11.3-44.6-4.6-56 15zM70.6 267.1c-11.3 19.6-4.6 44.6 15 55.9l393.8 227.4c19.6 11.3 44.6 4.6 55.9-15 11.3-19.6 4.6-44.6-15-55.9L126.5 252.1c-19.6-11.3-44.6-4.6-55.9 15z" fill="#3396fb" p-id="1774"></path><path d="M924.3 269.3c11.3 19.6 4.6 44.6-15 55.9l-390 225.2c-19.6 11.3-44.6 4.6-55.9-15-11.3-19.6-4.6-44.6 15-55.9l390.1-225.2c19.5-11.3 44.5-4.6 55.8 15zM70.6 721.1c-11.3 19.6-4.6 44.6 15 55.9l393.8 227.4c19.6 11.3 44.6 4.6 55.9-15 11.3-19.6 4.6-44.6-15-55.9L126.5 706.1c-19.6-11.3-44.6-4.6-55.9 15z" fill="#3396fb" p-id="1775"></path><path d="M924.3 723.3c11.3 19.6 4.6 44.6-15 55.9l-390.1 225.2c-19.6 11.3-44.6 4.6-55.9-15-11.3-19.6-4.6-44.6 15-55.9l390.1-225.2c19.6-11.3 44.6-4.6 55.9 15zM106.2 246.9c22.6 0 41 18.3 41 41v451.7c0 22.6-18.3 41-41 41-22.6 0-41-18.3-41-41V287.9c0.1-22.6 18.4-41 41-41z" fill="#3396fb" p-id="1776"></path><path d="M502.5 472.9c22.6 0 41 18.3 41 41v451.7c0 22.6-18.3 41-41 41-22.6 0-41-18.3-41-41V513.9c0-22.6 18.3-41 41-41zM889.5 464c22.6 0 41 18.3 41 41v239.6c0 22.6-18.3 41-41 41-22.6 0-41-18.3-41-41V505c0-22.6 18.3-41 41-41z" fill="#3396fb" p-id="1777"></path></svg>