<?xml version="1.0" standalone="no"?><!DOCTYPE svg PUBLIC "-//W3C//DTD SVG 1.1//EN" "http://www.w3.org/Graphics/SVG/1.1/DTD/svg11.dtd"><svg t="1591617872075" class="icon" viewBox="0 0 1024 1024" version="1.1" xmlns="http://www.w3.org/2000/svg" p-id="4028" xmlns:xlink="http://www.w3.org/1999/xlink" width="100" height="100"><defs><style type="text/css"></style></defs><path d="M172.8 1017.6c-89.6 0-166.4-70.4-166.4-166.4V441.6c0-89.6 70.4-166.4 166.4-166.4h416c89.6 0 166.4 70.4 166.4 166.4v416c0 89.6-70.4 166.4-166.4 166.4l-416-6.4z m0-659.2c-51.2 0-89.6 38.4-89.6 89.6v416c0 51.2 38.4 89.6 89.6 89.6h416c51.2 0 89.6-38.4 89.6-89.6V441.6c0-51.2-38.4-89.6-89.6-89.6H172.8z" p-id="4029" fill="#ffffff"></path><path d="M851.2 19.2H435.2C339.2 19.2 268.8 96 268.8 185.6v25.6h70.4v-25.6c0-51.2 38.4-89.6 89.6-89.6h409.6c51.2 0 89.6 38.4 89.6 89.6v409.6c0 51.2-38.4 89.6-89.6 89.6h-38.4V768h51.2c96 0 166.4-76.8 166.4-166.4V185.6c0-96-76.8-166.4-166.4-166.4z" p-id="4030" fill="#ffffff"></path></svg>