<?xml version="1.0" standalone="no"?><!DOCTYPE svg PUBLIC "-//W3C//DTD SVG 1.1//EN" "http://www.w3.org/Graphics/SVG/1.1/DTD/svg11.dtd"><svg t="1591618698513" class="icon" viewBox="0 0 1024 1024" version="1.1" xmlns="http://www.w3.org/2000/svg" p-id="28099" xmlns:xlink="http://www.w3.org/1999/xlink" width="100" height="100"><defs><style type="text/css"></style></defs><path d="M535.04 961.28c-20.48 0-39.68-7.68-53.76-21.76L385.92 844.8c-27.52-27.52-28.8-72.96-2.56-110.72l149.12-233.6c9.6-14.72 29.44-19.2 44.16-9.6 14.72 9.6 19.2 29.44 9.6 44.16l-149.76 234.24c0 0.64-0.64 0.64-0.64 1.28-8.32 12.16-8.96 24.96-4.48 28.8l95.36 95.36c3.84 3.84 10.24 3.2 13.44 1.92 11.52-2.56 26.24-12.16 33.28-28.8l256-632.32c3.2-7.68 2.56-12.8 0.64-14.72-1.92-1.92-7.04-2.56-14.72 0.64l-632.32 256c-16.64 6.4-26.24 21.12-28.8 33.28-0.64 3.84-1.28 10.24 1.92 13.44l104.96 104.96c3.84 3.84 15.36 3.84 27.52-3.2 0.64-0.64 1.92-1.28 2.56-1.28L360.32 588.8c16-8.32 35.2-1.92 42.88 14.08 8.32 16 1.92 35.2-14.08 42.88l-68.48 35.2c-36.48 22.4-79.36 19.84-105.6-6.4L110.72 568.96c-17.92-17.92-24.96-44.16-19.84-71.68 7.04-34.56 33.28-65.92 67.2-79.36l632.32-256c30.72-12.8 63.36-7.04 83.84 13.44s26.24 53.12 13.44 83.84l-256 632.32c-13.44 33.92-44.8 60.16-79.36 67.2-5.76 1.92-11.52 2.56-17.28 2.56z" fill="#ffffff" p-id="28100"></path></svg>