<?xml version="1.0" standalone="no"?><!DOCTYPE svg PUBLIC "-//W3C//DTD SVG 1.1//EN" "http://www.w3.org/Graphics/SVG/1.1/DTD/svg11.dtd"><svg t="1591617366825" class="icon" viewBox="0 0 1024 1024" version="1.1" xmlns="http://www.w3.org/2000/svg" p-id="4392" xmlns:xlink="http://www.w3.org/1999/xlink" width="100" height="100"><defs><style type="text/css"></style></defs><path d="M472.426 952.64c-37.926 0-68.78-30.853-68.78-68.779v-62.415l-4.591-1.521c-11.234-3.743-23.133-9.050-33.634-13.738l-4.148-1.833-3.599 3.092-39.746 41.036c-12.711 12.697-30.099 19.708-48.93 19.708-18.838 0-36.234-7.028-48.981-19.785l-53.747-53.739c-12.751-12.751-19.775-30.149-19.775-48.993 0-18.842 7.024-36.243 19.775-48.994l44.205-44.208-1.891-4.208c-4.983-11.241-10.102-22.791-13.821-33.932l-1.539-4.695-62.557 1.386c-37.819-0.004-68.63-30.858-68.63-68.783v-76.762c0-37.925 30.853-68.779 68.78-68.779h62.446l1.506-4.601c3.697-11.049 8.75-22.462 13.633-33.502l2.117-4.708-44.322-42.928c-12.693-12.692-19.699-30.075-19.699-48.917s7.024-36.243 19.775-48.993l53.744-53.733c12.751-12.761 30.149-19.788 48.986-19.788 18.83 0 36.233 7.028 49.009 19.788l44.178 44.215 4.474-1.99c11.094-4.934 22.572-10.031 33.696-13.745l4.699-1.555-1.414-62.533c0-37.813 30.858-68.625 68.784-68.625h76.783c37.925 0 68.779 30.853 68.779 68.779v62.415l4.591 1.525c11.415 3.81 22.85 8.915 33.909 13.851l4.279 1.909 42.938-44.32c12.711-12.697 30.099-19.708 48.931-19.708s36.233 7.024 49.008 19.785l53.721 53.733c12.771 12.756 19.799 30.159 19.799 48.999 0 18.838-7.028 36.239-19.799 48.994l-44.208 44.208 2.053 4.57c4.908 11.078 9.977 22.53 13.664 33.569l1.543 4.695 62.555-1.386c18.945 0 37.253 7.646 50.169 20.972 12.441 12.82 18.994 29.729 18.462 47.618v76.954c0 37.925-30.858 68.779-68.784 68.779h-62.442l-1.507 4.601c-3.697 11.044-8.749 22.462-13.629 33.499l-2.122 4.711 44.323 42.928c12.705 12.692 19.719 30.076 19.719 48.917 0 18.838-7.028 36.238-19.793 48.993l-53.725 53.739c-12.771 12.756-30.176 19.785-49.008 19.785s-36.238-7.028-49.009-19.788l-44.179-44.215-4.464 1.99c-11.099 4.93-22.575 10.031-33.707 13.745l-4.698 1.555 1.406 62.528c0 37.818-30.853 68.629-68.779 68.629l-76.786-0.002zM392.597 749.093c6.246 3.566 12.829 6.062 18.629 8.27 3.088 1.17 5.868 2.231 8.693 3.43l0.081 0.036 0.083 0.032c26.87 9.376 45.635 36.279 45.635 65.427v64.278h90.195v-64.278c0-29.151 18.659-56.014 45.379-65.322l0.176-0.067 27.151-11.611c9.109-4.14 19.171-6.316 29.147-6.316 18.647 0 36.121 7.187 49.193 20.238l45.671 45.7 63.232-63.232-45.7-45.685c-20.882-19.739-26.796-52.47-14.125-77.907 3.516-6.143 5.895-12.381 8.193-18.413l0.063-0.171c1.047-2.771 2.185-5.738 3.453-8.718l0.068-0.167c9.375-26.89 36.274-45.671 65.412-45.671h64.293v-90.171h-64.293c-29.138 0-56-18.67-65.321-45.401l-0.068-0.171-11.611-27.13c-12.038-26.528-6.432-57.986 13.93-78.339l45.705-45.685-63.232-63.231-45.676 45.699c-12.512 13.231-30.362 20.791-49.026 20.791-10.138 0-20.128-2.306-28.894-6.681-6.239-3.556-12.805-6.054-18.606-8.255-2.95-1.115-5.83-2.218-8.685-3.441l-0.086-0.036-0.087-0.032c-26.885-9.376-45.658-36.279-45.658-65.427v-64.278h-90.195v64.278c0 29.151-18.659 56.014-45.38 65.322l-0.091 0.032-27.233 11.646c-9.115 4.145-19.175 6.32-29.151 6.32-18.646 0-36.119-7.19-49.191-20.241l-45.671-45.699-63.204 63.231 45.673 45.685c20.882 19.739 26.795 52.47 14.128 77.911-3.537 6.179-5.922 12.455-8.228 18.527l-0.429 1.114c-0.971 2.518-1.972 5.123-3.055 7.669l-0.068 0.167c-9.375 26.88-36.279 45.653-65.413 45.653h-64.292v88.898h64.292c29.138 0 56 18.673 65.322 45.405l0.032 0.086 11.646 27.201c12.034 26.511 6.425 57.973-13.933 78.353l-45.673 45.673 63.204 63.231 45.676-45.685c12.409-12.393 30.732-19.788 49.004-19.788 9.696 0.001 19.963 2.465 28.923 6.943v0zM510.817 689.073c-101.418 0-183.931-82.51-183.931-183.931 0-101.418 82.511-183.931 183.931-183.931 17.18 0 34.645 2.493 51.901 7.411 8.178 2.564 14.886 7.953 18.827 15.165 3.946 7.217 4.727 15.641 2.199 23.721-4.253 13.554-16.125 22.66-29.543 22.66-3.088 0-6.225-0.489-9.331-1.439-10.013-3.765-20.519-5.44-34.053-5.44-66.491 0-120.586 54.086-120.586 120.569 0 66.486 54.096 120.573 120.586 120.573 66.486 0 120.581-54.086 120.581-120.573 0-8.219-1.029-15.401-2.117-23.004l-0.542-3.675-0.032-0.122c-4.171-16.869 6.189-34.041 23.103-38.316 1.809-0.324 3.805-0.495 5.769-0.495 15.311 0 28.574 10.287 32.253 25.015 3.314 12.119 4.915 25.377 4.915 40.595 0.001 102.128-82.508 185.215-183.931 185.215v0zM510.817 689.073z" p-id="4393" fill="#ffffff"></path></svg>