<?xml version="1.0" encoding="utf-8"?>
<!-- Generator: Adobe Illustrator 16.0.0, SVG Export Plug-In . SVG Version: 6.00 Build 0)  -->
<!DOCTYPE svg PUBLIC "-//W3C//DTD SVG 1.1//EN" "http://www.w3.org/Graphics/SVG/1.1/DTD/svg11.dtd">
<svg version="1.1" id="图层_1" xmlns="http://www.w3.org/2000/svg" xmlns:xlink="http://www.w3.org/1999/xlink" x="0px" y="0px"
	 width="300px" height="300px" viewBox="0 0 300 300" enable-background="new 0 0 300 300" xml:space="preserve">
<g>
	<path fill="#00A0E9" d="M146.884,143.75h31.437c3.826-2.833,7.194-6.542,10.105-11.125c2.91-4.583,4.366-8.958,4.366-13.125
		c0-3.333-0.541-6.792-1.622-10.375s-2.62-6.833-4.616-9.75c-1.995-2.917-4.449-5.292-7.359-7.125
		c-2.911-1.833-6.196-2.75-9.855-2.75H90.248V73.75h82.334c5.156,0,10.063,1.208,14.721,3.625s8.732,5.667,12.226,9.75
		c3.492,4.083,6.278,8.958,8.357,14.625s3.119,11.75,3.119,18.25c0,3.5-0.457,6.833-1.372,10s-2.121,6.125-3.618,8.875
		s-3.16,5.25-4.989,7.5c-1.83,2.25-3.576,4.208-5.24,5.875c1.664,1.834,3.368,3.834,5.115,6c1.746,2.166,3.368,4.584,4.865,7.25
		s2.744,5.5,3.742,8.5s1.497,6.166,1.497,9.5c0,6.5-1.04,12.583-3.119,18.25s-4.865,10.542-8.357,14.625
		c-3.493,4.083-7.568,7.333-12.226,9.75s-9.564,3.625-14.721,3.625H90.248V214h79.59c3.659,0,6.902-0.917,9.73-2.75
		c2.827-1.833,5.197-4.208,7.11-7.125s3.368-6.167,4.366-9.75s1.497-7.042,1.497-10.375c0-4.334-1.414-8.75-4.241-13.25
		c-2.828-4.5-6.237-8.25-10.229-11.25h-31.188V143.75z"/>
</g>
<circle fill="none" stroke="#FFFFFF" stroke-width="10" stroke-miterlimit="10" cx="150" cy="150" r="145"/>
<g>
</g>
<g>
</g>
<g>
</g>
<g>
</g>
<g>
</g>
<g>
</g>
</svg>
