<?xml version="1.0" encoding="utf-8"?>
<!-- Generator: Adobe Illustrator 16.0.0, SVG Export Plug-In . SVG Version: 6.00 Build 0)  -->
<!DOCTYPE svg PUBLIC "-//W3C//DTD SVG 1.1//EN" "http://www.w3.org/Graphics/SVG/1.1/DTD/svg11.dtd">
<svg version="1.1" id="图层_1" xmlns="http://www.w3.org/2000/svg" xmlns:xlink="http://www.w3.org/1999/xlink" x="0px" y="0px"
	 width="300px" height="300px" viewBox="0 0 300 300" enable-background="new 0 0 300 300" xml:space="preserve">
<g>
	<path fill="#00A0E9" d="M216.991,89.5H100.476v54h19.959v16.25H82.512v-86h134.479V89.5z M85.007,214h89.57
		c8.981,0,15.718-2.583,20.209-7.75s6.736-11.75,6.736-19.75c0-7-1.58-12.791-4.74-17.375s-8.233-7.541-15.22-8.875v-16.5
		c5.156,0,10.021,1.167,14.596,3.5s8.607,5.416,12.101,9.25s6.237,8.375,8.233,13.625s2.994,10.709,2.994,16.375
		c0,6.5-1.04,12.417-3.119,17.75s-4.865,9.875-8.357,13.625c-3.493,3.75-7.568,6.667-12.226,8.75s-9.564,3.125-14.721,3.125H85.007
		V214z"/>
</g>
<circle fill="none" stroke="#FFFFFF" stroke-width="10" stroke-miterlimit="10" cx="150" cy="150" r="145"/>
<g>
</g>
<g>
</g>
<g>
</g>
<g>
</g>
<g>
</g>
<g>
</g>
</svg>
