<?xml version="1.0" encoding="utf-8"?>
<!-- Generator: Adobe Illustrator 16.0.0, SVG Export Plug-In . SVG Version: 6.00 Build 0)  -->
<!DOCTYPE svg PUBLIC "-//W3C//DTD SVG 1.1//EN" "http://www.w3.org/Graphics/SVG/1.1/DTD/svg11.dtd">
<svg version="1.1" id="图层_1" xmlns="http://www.w3.org/2000/svg" xmlns:xlink="http://www.w3.org/1999/xlink" x="0px" y="0px"
	 width="300px" height="300px" viewBox="0 0 300 300" enable-background="new 0 0 300 300" xml:space="preserve">
<g>
	<path fill="#00A0E9" d="M81.639,120c0-6.5,0.998-12.583,2.994-18.25c1.996-5.667,4.74-10.542,8.233-14.625
		c3.493-4.083,7.568-7.333,12.225-9.75s9.647-3.625,14.97-3.625h59.88c5.156,0,10.063,1.208,14.72,3.625
		c4.658,2.417,8.732,5.667,12.226,9.75s6.279,8.958,8.358,14.625s3.118,11.75,3.118,18.25c0,3.5-0.457,6.833-1.372,10
		c-0.914,3.167-2.12,6.125-3.617,8.875s-3.16,5.25-4.99,7.5c-1.829,2.25-3.576,4.208-5.239,5.875c1.663,1.834,3.368,3.834,5.114,6
		c1.747,2.166,3.368,4.584,4.865,7.25s2.745,5.5,3.743,8.5c0.997,3,1.496,6.166,1.496,9.5c0,6.5-1.039,12.583-3.118,18.25
		s-4.865,10.542-8.358,14.625s-7.567,7.333-12.226,9.75c-4.657,2.417-9.563,3.625-14.72,3.625h-59.88
		c-5.322,0-10.313-1.208-14.97-3.625s-8.732-5.667-12.225-9.75c-3.493-4.083-6.238-8.958-8.233-14.625
		c-1.996-5.667-2.994-11.75-2.994-18.25c0-3.334,0.499-6.5,1.497-9.5s2.246-5.834,3.742-8.5c1.497-2.666,3.119-5.084,4.865-7.25
		c1.747-2.166,3.452-4.166,5.115-6c-1.663-1.667-3.41-3.625-5.239-5.875s-3.493-4.75-4.99-7.5c-1.497-2.75-2.703-5.708-3.618-8.875
		C82.097,126.833,81.639,123.5,81.639,120z M154.243,143.75h31.437c3.825-2.833,7.193-6.542,10.104-11.125s4.366-8.958,4.366-13.125
		c0-3.333-0.54-6.792-1.622-10.375c-1.081-3.583-2.619-6.833-4.615-9.75s-4.449-5.292-7.36-7.125c-2.91-1.833-6.195-2.75-9.854-2.75
		h-53.393c-3.659,0-6.944,0.917-9.855,2.75c-2.911,1.833-5.364,4.208-7.36,7.125s-3.535,6.167-4.616,9.75s-1.622,7.042-1.622,10.375
		c0,4.167,1.497,8.542,4.491,13.125c2.994,4.583,6.487,8.292,10.479,11.125v15.75c-3.992,2.834-7.443,6.584-10.354,11.25
		c-2.911,4.666-4.366,9.084-4.366,13.25c0,3.333,0.499,6.792,1.497,10.375c0.998,3.583,2.453,6.833,4.366,9.75
		c1.913,2.917,4.283,5.292,7.11,7.125s6.071,2.75,9.73,2.75h54.391c3.659,0,6.902-0.917,9.729-2.75
		c2.828-1.833,5.198-4.208,7.111-7.125c1.912-2.917,3.368-6.167,4.366-9.75s1.497-7.042,1.497-10.375
		c0-4.334-1.414-8.75-4.242-13.25c-2.827-4.5-6.237-8.25-10.229-11.25h-31.188V143.75z"/>
</g>
<circle fill="none" stroke="#FFFFFF" stroke-width="10" stroke-miterlimit="10" cx="150" cy="150" r="145"/>
<g>
</g>
<g>
</g>
<g>
</g>
<g>
</g>
<g>
</g>
<g>
</g>
</svg>
