<?xml version="1.0" encoding="utf-8"?>
<!-- Generator: Adobe Illustrator 16.0.0, SVG Export Plug-In . SVG Version: 6.00 Build 0)  -->
<!DOCTYPE svg PUBLIC "-//W3C//DTD SVG 1.1//EN" "http://www.w3.org/Graphics/SVG/1.1/DTD/svg11.dtd">
<svg version="1.1" id="图层_1" xmlns="http://www.w3.org/2000/svg" xmlns:xlink="http://www.w3.org/1999/xlink" x="0px" y="0px"
	 width="300px" height="300px" viewBox="0 0 300 300" enable-background="new 0 0 300 300" xml:space="preserve">
<g>
	<path fill="#00A0E9" d="M78.148,121c4.824-9.5,11.061-17.833,18.712-25s16.176-12.792,25.573-16.875
		C131.832,75.042,141.022,73,150.003,73c10.978,0,21.291,2.083,30.938,6.25s18.006,9.792,25.074,16.875
		c7.069,7.083,12.684,15.417,16.842,25s6.237,19.792,6.237,30.625c0,10.834-2.079,21.041-6.237,30.625
		c-4.158,9.583-9.772,17.917-16.842,25c-7.068,7.083-15.427,12.708-25.074,16.875s-19.96,6.25-30.938,6.25
		c-7.983,0-15.635-1.125-22.954-3.375c-7.318-2.25-14.097-5.417-20.334-9.5s-11.768-8.917-16.591-14.5s-8.815-11.792-11.976-18.625
		l13.972-9c2.495,5.5,5.697,10.583,9.605,15.25s8.358,8.708,13.348,12.125c4.99,3.417,10.437,6.083,16.342,8
		s12.017,2.875,18.338,2.875c8.151,0,15.926-1.583,23.328-4.75c7.402-3.167,13.931-7.417,19.586-12.75s10.271-11.5,13.847-18.5
		s5.614-14.416,6.113-22.25H70.913v-3.75C70.913,140.75,73.325,130.5,78.148,121z M211.38,139.75
		c-1.497-7-4.116-13.542-7.858-19.625c-3.743-6.083-8.317-11.375-13.723-15.875c-5.406-4.5-11.519-8.042-18.338-10.625
		s-13.972-3.875-21.458-3.875c-6.486,0-12.974,1.208-19.46,3.625s-12.475,5.792-17.964,10.125s-10.354,9.583-14.596,15.75
		c-4.241,6.167-7.443,13-9.605,20.5H211.38z"/>
</g>
<circle fill="none" stroke="#FFFFFF" stroke-width="10" stroke-miterlimit="10" cx="150" cy="150" r="145"/>
<g>
</g>
<g>
</g>
<g>
</g>
<g>
</g>
<g>
</g>
<g>
</g>
</svg>
