<?xml version="1.0" encoding="utf-8"?>
<!-- Generator: Adobe Illustrator 16.0.0, SVG Export Plug-In . SVG Version: 6.00 Build 0)  -->
<!DOCTYPE svg PUBLIC "-//W3C//DTD SVG 1.1//EN" "http://www.w3.org/Graphics/SVG/1.1/DTD/svg11.dtd">
<svg version="1.1" id="图层_1" xmlns="http://www.w3.org/2000/svg" xmlns:xlink="http://www.w3.org/1999/xlink" x="0px" y="0px"
	 width="300px" height="300px" viewBox="0 0 300 300" enable-background="new 0 0 300 300" xml:space="preserve">
<g>
	<path fill="#00A0E9" d="M79.644,229.75v-156h64.869c10.978,0,21.291,2.042,30.938,6.125s18.005,9.708,25.074,16.875
		s12.683,15.5,16.841,25s6.237,19.667,6.237,30.5c0,10.834-2.245,20.959-6.736,30.375c-4.49,9.417-10.396,17.625-17.714,24.625
		s-15.677,12.5-25.074,16.5s-19.087,6-29.067,6H79.644z M97.109,213.75h47.404c7.652,0,15.261-1.625,22.83-4.875
		c7.567-3.25,14.263-7.708,20.084-13.375s10.563-12.167,14.222-19.5c3.659-7.334,5.488-15.166,5.488-23.5
		c0-8.167-1.663-16.042-4.989-23.625c-3.327-7.583-7.817-14.25-13.473-20s-12.268-10.333-19.835-13.75
		C161.271,91.708,153.246,90,144.762,90H97.109V213.75z"/>
</g>
<circle fill="none" stroke="#FFFFFF" stroke-width="10" stroke-miterlimit="10" cx="150" cy="150" r="145"/>
<g>
</g>
<g>
</g>
<g>
</g>
<g>
</g>
<g>
</g>
<g>
</g>
</svg>
