<?xml version="1.0" encoding="utf-8"?>
<!-- Generator: Adobe Illustrator 16.0.0, SVG Export Plug-In . SVG Version: 6.00 Build 0)  -->
<!DOCTYPE svg PUBLIC "-//W3C//DTD SVG 1.1//EN" "http://www.w3.org/Graphics/SVG/1.1/DTD/svg11.dtd">
<svg version="1.1" id="图层_1" xmlns="http://www.w3.org/2000/svg" xmlns:xlink="http://www.w3.org/1999/xlink" x="0px" y="0px"
	 width="300px" height="300px" viewBox="0 0 300 300" enable-background="new 0 0 300 300" xml:space="preserve">
<g>
	<path fill="#00A0E9" d="M70.913,151.75c0-10.833,2.079-21.042,6.237-30.625c4.159-9.583,9.772-17.917,16.841-25
		c7.069-7.083,15.427-12.708,25.074-16.875c9.647-4.167,19.96-6.25,30.938-6.25c10.978,0,21.291,2.083,30.938,6.25
		s18.006,9.792,25.074,16.875c7.069,7.083,12.684,15.417,16.842,25s6.237,19.792,6.237,30.625c0,10.834-2.079,21.041-6.237,30.625
		c-4.158,9.583-9.772,17.917-16.842,25c-7.068,7.083-15.427,12.708-25.074,16.875s-19.96,6.25-30.938,6.25
		c-10.978,0-21.29-2.083-30.938-6.25c-9.647-4.167-18.005-9.792-25.074-16.875c-7.069-7.083-12.683-15.417-16.841-25
		C72.992,172.791,70.913,162.584,70.913,151.75z M87.629,152c0,8.334,1.664,16.209,4.99,23.625
		c3.326,7.417,7.817,13.958,13.473,19.625s12.267,10.167,19.835,13.5c7.568,3.333,15.594,5,24.076,5c8.484,0,16.509-1.667,24.077-5
		c7.568-3.333,14.222-7.833,19.96-13.5s10.271-12.208,13.598-19.625c3.326-7.416,4.99-15.291,4.99-23.625
		c0-8.167-1.664-16.042-4.99-23.625s-7.817-14.208-13.473-19.875s-12.267-10.208-19.835-13.625s-15.594-5.125-24.077-5.125
		c-8.483,0-16.55,1.708-24.202,5.125c-7.651,3.417-14.304,7.958-19.959,13.625s-10.146,12.292-13.473,19.875
		C89.293,135.958,87.629,143.833,87.629,152z"/>
</g>
<circle fill="none" stroke="#FFFFFF" stroke-width="10" stroke-miterlimit="10" cx="150" cy="150" r="145"/>
<g>
</g>
<g>
</g>
<g>
</g>
<g>
</g>
<g>
</g>
<g>
</g>
</svg>
