<?xml version="1.0" encoding="utf-8"?>
<!-- Generator: Adobe Illustrator 16.0.0, SVG Export Plug-In . SVG Version: 6.00 Build 0)  -->
<!DOCTYPE svg PUBLIC "-//W3C//DTD SVG 1.1//EN" "http://www.w3.org/Graphics/SVG/1.1/DTD/svg11.dtd">
<svg version="1.1" id="图层_1" xmlns="http://www.w3.org/2000/svg" xmlns:xlink="http://www.w3.org/1999/xlink" x="0px" y="0px"
	 width="300px" height="300px" viewBox="0 0 300 300" enable-background="new 0 0 300 300" xml:space="preserve">
<circle fill="none" stroke="#FFFFFF" stroke-width="10" stroke-miterlimit="10" cx="150" cy="150" r="145"/>
<path fill="#D81E06" d="M132.75,177.832c1.357,2.999,2.095,6.24,2.168,9.531c-0.062,4.51-1.498,8.891-4.117,12.563l-20.768,20.797
	c-3.663,2.612-8.034,4.045-12.532,4.109c-12.393-0.08-22.418-10.107-22.5-22.5c0.042-4.51,1.461-8.901,4.065-12.584l20.797-20.797
	c3.671-2.619,8.054-4.057,12.563-4.116c3.364,0.049,6.682,0.785,9.75,2.165l11.047-11.046c-6.092-4.076-13.25-6.263-20.579-6.285
	c-8.078-0.047-15.937,2.622-22.313,7.583l-22.747,22.746c-12.472,16.478-9.225,39.944,7.252,52.418
	c6.523,4.936,14.484,7.601,22.665,7.583c8.078,0.046,15.937-2.625,22.313-7.583l22.499-22.5c4.926-6.396,7.593-14.242,7.582-22.313
	c-0.021-7.328-2.208-14.489-6.284-20.58L132.75,177.832z M202.499,60c-8.077-0.048-15.937,2.624-22.312,7.582l-22.498,22.5
	c-4.926,6.394-7.594,14.241-7.584,22.312c0.021,7.33,2.208,14.489,6.284,20.581l11.048-11.025c-1.381-3.068-2.118-6.386-2.167-9.75
	c0.062-4.509,1.499-8.891,4.118-12.563l20.795-20.797c3.672-2.619,8.055-4.056,12.563-4.117c12.393,0.082,22.417,10.107,22.5,22.5
	c-0.062,4.509-1.5,8.892-4.117,12.563l-20.769,20.828c-3.67,2.618-8.053,4.055-12.562,4.116c-3.364-0.049-6.683-0.786-9.75-2.167
	l-11.048,11.048c6.093,4.075,13.25,6.262,20.58,6.285c8.079,0.046,15.937-2.624,22.313-7.583l22.498-22.5
	c4.935-6.392,7.608-14.239,7.606-22.313C239.93,76.818,223.182,60.069,202.499,60z"/>
<path fill="#D81E06" d="M116.753,121.086c-2.022,0.038-3.976-0.743-5.415-2.167L92.491,99.876
	c-2.991-2.931-3.039-7.731-0.107-10.723c0.035-0.036,0.071-0.072,0.107-0.107c2.791-2.93,7.428-3.044,10.359-0.253
	c0.086,0.083,0.171,0.167,0.252,0.253l19.065,19.065c2.991,2.931,3.038,7.732,0.107,10.723c-0.035,0.036-0.071,0.071-0.107,0.106
	C120.67,120.269,118.754,121.027,116.753,121.086z M134.295,117.396c-4.167-0.048-7.533-3.415-7.582-7.582V88.59
	c0-4.188,3.396-7.583,7.582-7.583c4.188,0,7.583,3.396,7.583,7.583v21.225c0.046,4.142-3.274,7.536-7.417,7.582
	C134.406,117.397,134.351,117.397,134.295,117.396z M113.934,137.767H92.708c-4.187,0-7.582-3.395-7.582-7.583
	c0-4.188,3.395-7.582,7.582-7.582h21.226c4.188,0,7.582,3.395,7.582,7.582C121.516,134.372,118.121,137.767,113.934,137.767
	L113.934,137.767z M208.381,210.98c-2.025,0.039-3.977-0.743-5.416-2.167l-19.065-19.065c-2.93-2.93-2.93-7.682,0-10.611
	c2.931-2.933,7.684-2.933,10.612,0l19.064,19.064c2.933,2.792,3.045,7.429,0.254,10.359c-0.081,0.086-0.166,0.17-0.254,0.253
	C212.244,210.259,210.346,211.051,208.381,210.98z M171.772,216.824c-4.166-0.05-7.534-3.416-7.583-7.584v-21.224
	c0-4.188,3.396-7.583,7.583-7.583c4.188,0,7.583,3.395,7.583,7.583v21.224c0.046,4.142-3.276,7.538-7.418,7.584
	C171.883,216.824,171.829,216.824,171.772,216.824z M213.352,175.454h-21.224c-4.188,0-7.583-3.395-7.583-7.582
	c0-4.188,3.396-7.583,7.583-7.583h21.224c4.188,0,7.583,3.395,7.583,7.583C220.935,172.06,217.539,175.454,213.352,175.454z"/>
</svg>
