<?xml version="1.0" encoding="utf-8"?>
<!-- Generator: Adobe Illustrator 16.0.0, SVG Export Plug-In . SVG Version: 6.00 Build 0)  -->
<!DOCTYPE svg PUBLIC "-//W3C//DTD SVG 1.1//EN" "http://www.w3.org/Graphics/SVG/1.1/DTD/svg11.dtd">
<svg version="1.1" id="图层_1" xmlns="http://www.w3.org/2000/svg" xmlns:xlink="http://www.w3.org/1999/xlink" x="0px"
     y="0px"
     width="300px" height="300px" viewBox="0 0 300 300" enable-background="new 0 0 300 300" xml:space="preserve">
<g>
	<path fill="#00A0E9" d="M221.859,182.5c-4.824,9.5-11.062,17.833-18.713,25s-16.176,12.792-25.573,16.875
		s-18.587,6.125-27.57,6.125c-10.978,0-21.29-2.083-30.938-6.25c-9.647-4.167-18.005-9.792-25.074-16.875
		c-7.069-7.083-12.683-15.417-16.841-25c-4.158-9.584-6.237-19.791-6.237-30.625c0-10.833,2.079-21.042,6.237-30.625
		c4.159-9.583,9.772-17.917,16.841-25c7.069-7.083,15.427-12.708,25.074-16.875c9.647-4.167,19.96-6.25,30.938-6.25
		c7.985,0,15.636,1.125,22.955,3.375s14.055,5.458,20.209,9.625s11.685,9.083,16.592,14.75c4.906,5.667,8.94,11.833,12.101,18.5
		l-13.972,9c-2.495-5.5-5.697-10.625-9.606-15.375c-3.908-4.75-8.357-8.833-13.348-12.25S174.496,94.5,168.592,92.5
		c-5.905-2-12.018-3-18.338-3c-8.15,0-15.927,1.583-23.328,4.75c-7.402,3.167-13.93,7.458-19.585,12.875
		s-10.271,11.667-13.847,18.75S87.879,140.333,87.38,148h141.715v3.75C229.095,162.75,226.683,173,221.859,182.5z M88.627,163.75
		c1.497,7,4.117,13.541,7.859,19.625c3.742,6.083,8.316,11.417,13.722,16s11.519,8.167,18.338,10.75S142.519,214,150.003,214
		c6.654,0,13.141-1.208,19.461-3.625s12.226-5.833,17.714-10.25c5.489-4.417,10.354-9.708,14.596-15.875
		c4.241-6.166,7.526-13,9.855-20.5H88.627z"/>
</g>
    <circle fill="none" stroke="#FFFFFF" stroke-width="10" stroke-miterlimit="10" cx="150" cy="150" r="145"/>
    <g>
</g>
    <g>
</g>
    <g>
</g>
    <g>
</g>
    <g>
</g>
    <g>
</g>
</svg>
