<?xml version="1.0" encoding="utf-8"?>
<!-- Generator: Adobe Illustrator 16.0.0, SVG Export Plug-In . SVG Version: 6.00 Build 0)  -->
<!DOCTYPE svg PUBLIC "-//W3C//DTD SVG 1.1//EN" "http://www.w3.org/Graphics/SVG/1.1/DTD/svg11.dtd">
<svg version="1.1" id="图层_1" xmlns="http://www.w3.org/2000/svg" xmlns:xlink="http://www.w3.org/1999/xlink" x="0px" y="0px"
	 width="300px" height="300px" viewBox="0 0 300 300" enable-background="new 0 0 300 300" xml:space="preserve">
<g>
	<path fill="#00A0E9" d="M80.143,121.125c4.159-9.583,9.772-17.917,16.841-25c7.069-7.083,15.427-12.708,25.074-16.875
		c9.647-4.167,19.96-6.25,30.938-6.25c7.984,0,15.636,1.125,22.954,3.375s14.055,5.458,20.209,9.625s11.685,9.083,16.592,14.75
		c4.906,5.667,8.94,11.833,12.101,18.5l-13.972,9c-2.495-5.5-5.697-10.583-9.606-15.25c-3.908-4.667-8.357-8.75-13.348-12.25
		s-10.438-6.208-16.342-8.125c-5.905-1.917-12.018-2.875-18.338-2.875c-8.484,0-16.551,1.708-24.202,5.125
		c-7.651,3.417-14.304,7.958-19.959,13.625s-10.146,12.292-13.473,19.875c-3.327,7.583-4.99,15.458-4.99,23.625
		c0,8.334,1.664,16.209,4.99,23.625c3.326,7.417,7.817,13.958,13.473,19.625s12.267,10.167,19.835,13.5
		c7.568,3.333,15.594,5,24.077,5c5.821,0,11.477-0.792,16.966-2.375s10.604-3.792,15.344-6.625
		c4.741-2.833,9.065-6.208,12.975-10.125c3.908-3.917,7.193-8.292,9.854-13.125l11.976,12.25c-6.985,11-16.259,19.875-27.818,26.625
		c-11.561,6.75-24.658,10.125-39.296,10.125c-10.978,0-21.291-2.083-30.938-6.25c-9.647-4.167-18.005-9.792-25.074-16.875
		c-7.069-7.083-12.683-15.417-16.841-25c-4.158-9.584-6.237-19.791-6.237-30.625C73.905,140.917,75.984,130.708,80.143,121.125z
		 M219.362,164h-74.6v-15.75h74.6V164z"/>
</g>
<circle fill="none" stroke="#FFFFFF" stroke-width="10" stroke-miterlimit="10" cx="150" cy="150" r="145"/>
<g>
</g>
<g>
</g>
<g>
</g>
<g>
</g>
<g>
</g>
<g>
</g>
</svg>
