<?xml version="1.0" encoding="utf-8"?>
<!-- Generator: Adobe Illustrator 16.0.0, SVG Export Plug-In . SVG Version: 6.00 Build 0)  -->
<!DOCTYPE svg PUBLIC "-//W3C//DTD SVG 1.1//EN" "http://www.w3.org/Graphics/SVG/1.1/DTD/svg11.dtd">
<svg version="1.1" id="图层_1" xmlns="http://www.w3.org/2000/svg" xmlns:xlink="http://www.w3.org/1999/xlink" x="0px"
     y="0px"
     width="300px" height="300px" viewBox="0 0 300 300" enable-background="new 0 0 300 300" xml:space="preserve">
<g>
	<path fill="#00A0E9" d="M69.915,160H87.13c0.998,7.5,3.327,14.5,6.986,21s8.233,12.208,13.722,17.125
		c5.489,4.917,11.768,8.75,18.837,11.5c7.069,2.75,14.512,4.125,22.331,4.125c7.818,0,15.261-1.375,22.33-4.125
		c7.069-2.75,13.349-6.583,18.838-11.5c5.488-4.917,10.021-10.625,13.597-17.125s5.863-13.5,6.861-21V73.75h17.465v78.5
		c0,10.834-2.079,21-6.237,30.5s-9.771,17.792-16.841,24.875s-15.428,12.667-25.074,16.75c-9.647,4.083-19.96,6.125-30.938,6.125
		c-10.313,0-20.043-1.792-29.191-5.375c-9.148-3.583-17.257-8.542-24.326-14.875c-7.069-6.333-12.849-13.792-17.34-22.375
		C73.657,179.291,70.913,170,69.915,160z"/>
</g>
    <circle fill="none" stroke="#FFFFFF" stroke-width="10" stroke-miterlimit="10" cx="150" cy="150" r="145"/>
    <g>
</g>
    <g>
</g>
    <g>
</g>
    <g>
</g>
    <g>
</g>
    <g>
</g>
</svg>
