<?xml version="1.0" encoding="utf-8"?>
<!-- Generator: Adobe Illustrator 16.0.0, SVG Export Plug-In . SVG Version: 6.00 Build 0)  -->
<!DOCTYPE svg PUBLIC "-//W3C//DTD SVG 1.1//EN" "http://www.w3.org/Graphics/SVG/1.1/DTD/svg11.dtd">
<svg version="1.1" id="图层_1" xmlns="http://www.w3.org/2000/svg" xmlns:xlink="http://www.w3.org/1999/xlink" x="0px"
     y="0px"
     width="300px" height="300px" viewBox="0 0 300 300" enable-background="new 0 0 300 300" xml:space="preserve">
<g>
	<path fill="#00A0E9" d="M215.995,89.5h-89.57c-8.981,0-15.718,2.583-20.209,7.75S99.48,109,99.48,117c0,7,1.58,12.833,4.74,17.5
		s8.233,7.667,15.219,9v16.25c-5.156,0-10.021-1.166-14.595-3.5c-4.574-2.334-8.608-5.417-12.101-9.25
		c-3.493-3.833-6.238-8.333-8.233-13.5c-1.996-5.167-2.994-10.667-2.994-16.5c0-6.5,0.998-12.417,2.994-17.75
		c1.996-5.333,4.74-9.875,8.233-13.625c3.493-3.75,7.568-6.667,12.225-8.75s9.647-3.125,14.97-3.125h96.057V89.5z M84.011,214h89.57
		c8.981,0,15.718-2.583,20.209-7.75s6.736-11.75,6.736-19.75c0-7-1.58-12.791-4.74-17.375s-8.233-7.541-15.22-8.875v-16.5
		c5.156,0,10.021,1.167,14.596,3.5s8.607,5.416,12.101,9.25s6.237,8.375,8.233,13.625s2.994,10.709,2.994,16.375
		c0,6.5-1.04,12.417-3.119,17.75s-4.865,9.875-8.357,13.625c-3.493,3.75-7.568,6.667-12.226,8.75s-9.564,3.125-14.721,3.125H84.011
		V214z"/>
</g>
    <circle fill="none" stroke="#FFFFFF" stroke-width="10" stroke-miterlimit="10" cx="150" cy="150" r="145"/>
    <g>
</g>
    <g>
</g>
    <g>
</g>
    <g>
</g>
    <g>
</g>
    <g>
</g>
</svg>
