<?xml version="1.0" standalone="no"?><!DOCTYPE svg PUBLIC "-//W3C//DTD SVG 1.1//EN"
        "http://www.w3.org/Graphics/SVG/1.1/DTD/svg11.dtd">
<svg t="1595997509100" class="icon" viewBox="0 0 1024 1024" version="1.1" xmlns="http://www.w3.org/2000/svg"
     p-id="12249" width="200" height="200" xmlns:xlink="http://www.w3.org/1999/xlink">
    <defs>
        <style type="text/css"></style>
    </defs>
    <path d="M495.862 201.58l0.327 0.683 306.04 660.382c6.92 14.933 0.436 32.654-14.483 39.58-14.77 6.858-32.269 0.566-39.332-14.05l-0.21-0.446L682.521 746H256.825l-65.009 140.861c-6.827 14.795-24.237 21.33-39.07 14.762l-0.45-0.203c-14.78-6.835-21.31-24.261-14.747-39.109l0.203-0.449 304.393-659.556c10.533-22.824 42.716-23.078 53.717-0.727z m-26.63 84.176L284.515 686h370.201L469.232 285.756z"
          fill="#ffffff" p-id="12250"></path>
    <path d="M784.973 417c39.945 0 72.678-17.444 92.095-49.285h4.439v44.024H927V207.401C927 145.379 886.223 108 813.267 108c-63.801 0-110.959 31.565-117.339 79.465h48.267c6.658-23.535 31.623-37.102 67.408-37.102 44.66 0 67.685 20.212 67.685 57.038v27.134l-86.27 5.26C723.39 243.95 684 274.684 684 328.122 684 382.667 726.997 417 784.973 417z m8.97-42.053c-34.648 0-60.426-17.759-60.426-48.282 0-29.968 19.957-45.784 65.416-48.837l80.384-5.272v27.47c0 42.733-36.311 74.92-85.373 74.92z"
          fill="#ffffff" p-id="12251"></path>
</svg>