<?xml version="1.0" standalone="no"?><!DOCTYPE svg PUBLIC "-//W3C//DTD SVG 1.1//EN"
        "http://www.w3.org/Graphics/SVG/1.1/DTD/svg11.dtd">
<svg t="1591617768429" class="icon" viewBox="0 0 1024 1024" version="1.1" xmlns="http://www.w3.org/2000/svg" p-id="1283"
     xmlns:xlink="http://www.w3.org/1999/xlink" width="100" height="100">
    <defs>
        <style type="text/css"></style>
    </defs>
    <path d="M809 833.7c-6.2 0-12.3-2.4-17-7.1L568.3 602.2c-9.4-9.4-9.3-24.6 0.1-33.9 9.4-9.4 24.6-9.3 33.9 0.1L826 792.8c9.4 9.4 9.3 24.6-0.1 33.9-4.6 4.7-10.8 7-16.9 7zM508.9 533.6c-6.1 0-12.3-2.3-17-7L198.1 232.7c-9.4-9.4-9.4-24.6 0-33.9 9.4-9.4 24.6-9.4 33.9 0l293.9 293.9c9.4 9.4 9.4 24.6 0 33.9-4.7 4.7-10.9 7-17 7z"
          p-id="1284" fill="#ffffff"></path>
    <path d="M215 833.7c-6.1 0-12.3-2.3-17-7-9.4-9.4-9.4-24.6 0-33.9l594-594c9.4-9.4 24.6-9.4 33.9 0 9.4 9.4 9.4 24.6 0 33.9l-594 594c-4.6 4.7-10.7 7-16.9 7z"
          p-id="1285" fill="#ffffff"></path>
</svg>