<?xml version="1.0" standalone="no"?><!DOCTYPE svg PUBLIC "-//W3C//DTD SVG 1.1//EN"
        "http://www.w3.org/Graphics/SVG/1.1/DTD/svg11.dtd">
<svg t="1591629801360" class="icon" viewBox="0 0 1024 1024" version="1.1" xmlns="http://www.w3.org/2000/svg" p-id="2913"
     xmlns:xlink="http://www.w3.org/1999/xlink" width="100" height="100">
    <defs>
        <style type="text/css"></style>
    </defs>
    <path d="M642 312H382c-38.66 0-70 31.34-70 70v260c0 38.66 31.34 70 70 70h260c38.66 0 70-31.34 70-70V382c0-38.66-31.34-70-70-70z m20 330c0 11.028-8.972 20-20 20H382c-11.028 0-20-8.972-20-20V382c0-11.028 8.972-20 20-20h260c11.028 0 20 8.972 20 20v260z"
          p-id="2914" fill="#ffffff"></path>
    <path d="M935 537c13.807 0 25-11.193 25-25s-11.193-25-25-25h-83V387h83c13.807 0 25-11.193 25-25s-11.193-25-25-25h-83v-95c0-38.66-31.34-70-70-70h-95V89c0-13.807-11.193-25-25-25s-25 11.193-25 25v83H537V89c0-13.807-11.193-25-25-25s-25 11.193-25 25v83H387V89c0-13.807-11.193-25-25-25s-25 11.193-25 25v83h-95c-38.66 0-70 31.34-70 70v95H89c-13.807 0-25 11.193-25 25s11.193 25 25 25h83v100H89c-13.807 0-25 11.193-25 25s11.193 25 25 25h83v100H89c-13.807 0-25 11.193-25 25s11.193 25 25 25h83v95c0 38.66 31.34 70 70 70h95v83c0 13.807 11.193 25 25 25s25-11.193 25-25v-83h100v83c0 13.807 11.193 25 25 25s25-11.193 25-25v-83h100v83c0 13.807 11.193 25 25 25s25-11.193 25-25v-83h95c38.66 0 70-31.34 70-70v-95h83c13.807 0 25-11.193 25-25s-11.193-25-25-25h-83V537h83zM802 782c0 11.028-8.972 20-20 20H242c-11.028 0-20-8.972-20-20V242c0-11.028 8.972-20 20-20h540c11.028 0 20 8.972 20 20v540z"
          p-id="2915" fill="#ffffff"></path>
</svg>