<?xml version="1.0" standalone="no"?><!DOCTYPE svg PUBLIC "-//W3C//DTD SVG 1.1//EN" "http://www.w3.org/Graphics/SVG/1.1/DTD/svg11.dtd"><svg t="1591618978674" class="icon" viewBox="0 0 1024 1024" version="1.1" xmlns="http://www.w3.org/2000/svg" p-id="10941" xmlns:xlink="http://www.w3.org/1999/xlink" width="100" height="100"><defs><style type="text/css"></style></defs><path d="M512 64C265.6 64 64 265.6 64 512s201.6 448 448 448 448-201.6 448-448S758.4 64 512 64z m0 832C300.8 896 128 723.2 128 512S300.8 128 512 128s384 172.8 384 384-172.8 384-384 384z" p-id="10942" fill="#d81e06"></path><path d="M656 368m-48 0a48 48 0 1 0 96 0 48 48 0 1 0-96 0Z" p-id="10943" fill="#d81e06"></path><path d="M368 368m-48 0a48 48 0 1 0 96 0 48 48 0 1 0-96 0Z" p-id="10944" fill="#d81e06"></path><path d="M672 736c-9.6 0-19.2-3.2-25.6-12.8 0-3.2-41.6-51.2-134.4-51.2s-134.4 48-134.4 51.2c-9.6 12.8-32 16-44.8 6.4-12.8-9.6-16-32-6.4-44.8 3.2-3.2 60.8-76.8 185.6-76.8s182.4 73.6 185.6 76.8c9.6 12.8 6.4 35.2-6.4 44.8-6.4 3.2-12.8 6.4-19.2 6.4z" p-id="10945" fill="#d81e06"></path></svg>