<?xml version="1.0" standalone="no"?><!DOCTYPE svg PUBLIC "-//W3C//DTD SVG 1.1//EN"
        "http://www.w3.org/Graphics/SVG/1.1/DTD/svg11.dtd">
<svg t="1596104898607" class="icon" viewBox="0 0 1024 1024" version="1.1" xmlns="http://www.w3.org/2000/svg"
     p-id="10409" xmlns:xlink="http://www.w3.org/1999/xlink" width="200" height="200">
    <defs>
        <style type="text/css"></style>
    </defs>
    <path d="M816.38908 63.061244 209.027176 63.061244c-44.173059 0-79.982636 32.879851-79.982636 73.440639L129.04454 885.85878c0 40.559764 35.809577 73.440639 79.982636 73.440639l607.361905 0c44.173059 0 79.981612-32.880875 79.981612-73.440639L896.370693 136.50086C896.370693 95.941096 860.562139 63.061244 816.38908 63.061244zM806.369889 828.360228c0 22.065552-19.479657 39.952944-43.509956 39.952944L266.6782 868.313172c-24.029276 0-43.51098-17.887392-43.51098-39.952944L223.167221 193.537901c0-22.064528 19.48068-39.951921 43.51098-39.951921l496.181733 0c24.029276 0 43.509956 17.887392 43.509956 39.951921L806.369889 828.360228z"
          p-id="10410" fill="#ffffff"></path>
    <path d="M660.03301 318.823326 363.333564 318.823326c-22.036899 0-39.900755 17.86488-39.900755 39.900755s17.86488 39.900755 39.900755 39.900755l296.699446 0c22.036899 0 39.900755-17.86488 39.900755-39.900755S682.069909 318.823326 660.03301 318.823326z"
          p-id="10411" fill="#ffffff"></path>
    <path d="M660.03301 465.630926 363.333564 465.630926c-22.036899 0-39.900755 17.86488-39.900755 39.900755 0 22.036899 17.86488 39.900755 39.900755 39.900755l296.699446 0c22.036899 0 39.900755-17.863856 39.900755-39.900755C699.933765 483.495806 682.069909 465.630926 660.03301 465.630926z"
          p-id="10412" fill="#ffffff"></path>
    <path d="M660.03301 612.437503 363.333564 612.437503c-22.036899 0-39.900755 17.86488-39.900755 39.900755 0 22.036899 17.86488 39.900755 39.900755 39.900755l296.699446 0c22.036899 0 39.900755-17.863856 39.900755-39.900755C699.933765 630.302383 682.069909 612.437503 660.03301 612.437503z"
          p-id="10413" fill="#ffffff"></path>
</svg>