<?xml version="1.0" standalone="no"?><!DOCTYPE svg PUBLIC "-//W3C//DTD SVG 1.1//EN" "http://www.w3.org/Graphics/SVG/1.1/DTD/svg11.dtd"><svg t="1591618186296" class="icon" viewBox="0 0 1024 1024" version="1.1" xmlns="http://www.w3.org/2000/svg" p-id="12500" xmlns:xlink="http://www.w3.org/1999/xlink" width="100" height="100"><defs><style type="text/css"></style></defs><path d="M860.757333 924.444444H147.712C93.340444 924.444444 56.888889 881.095111 56.888889 826.723556V199.011556C56.888889 144.654222 93.340444 99.555556 147.712 99.555556h263.253333c13.127111 0 24.561778 8.988444 27.633778 21.745777L467.768889 241.777778h393.002667C915.128889 241.777778 967.111111 286.876444 967.111111 341.233778v485.489778C967.111111 881.095111 915.128889 924.444444 860.757333 924.444444zM147.712 156.444444C124.714667 156.444444 113.777778 176.028444 113.777778 199.011556v627.712C113.777778 849.735111 124.714667 867.555556 147.712 867.555556h713.059556C883.754667 867.555556 910.222222 849.735111 910.222222 826.723556V341.233778C910.222222 318.250667 883.754667 298.666667 860.757333 298.666667H445.368889a28.416 28.416 0 0 1-27.633778-21.745778L388.565333 156.444444H147.712z" p-id="12501" fill="#ffffff"></path><path d="M807.310222 824.888889h-146.631111a14.222222 14.222222 0 1 1 0-28.444445h146.631111c14.065778 0 31.800889-1.521778 31.800889-32.654222v-51.811555a14.222222 14.222222 0 1 1 28.444445 0v51.811555C867.555556 804.892444 842.126222 824.888889 807.310222 824.888889zM846.691556 660.920889c-3.697778 0-7.395556-1.550222-10.097778-4.110222-2.56-2.716444-4.124444-6.414222-4.124445-10.112s1.564444-7.395556 4.124445-10.083556a14.876444 14.876444 0 0 1 20.209778 0c2.56 2.688 4.110222 6.385778 4.110222 10.083556s-1.550222 7.395556-4.110222 10.112c-2.702222 2.56-6.4 4.110222-10.112 4.110222zM888.234667 184.888889h-355.555556a28.444444 28.444444 0 0 1 0-56.888889h355.555556a28.444444 28.444444 0 0 1 0 56.888889z" p-id="12502" fill="#ffffff"></path></svg>