<?xml version="1.0" standalone="no"?><!DOCTYPE svg PUBLIC "-//W3C//DTD SVG 1.1//EN"
        "http://www.w3.org/Graphics/SVG/1.1/DTD/svg11.dtd">
<svg t="1593075956697" class="icon" viewBox="0 0 1024 1024" version="1.1" xmlns="http://www.w3.org/2000/svg" p-id="9790"
     xmlns:xlink="http://www.w3.org/1999/xlink" width="100" height="100">
    <defs>
        <style type="text/css"></style>
    </defs>
    <path d="M725.12 567.232a252.032 252.032 0 0 0 233.856-251.264c0-23.04-3.264-46.272-9.792-69.12a27.904 27.904 0 0 0-46.656-12.16l-48.256 48.384c-30.4 30.464-83.456 30.528-113.92 0a80.896 80.896 0 0 1 0-114.176l48.256-48.32a27.904 27.904 0 0 0-12.032-46.72 252.416 252.416 0 0 0-69.12-9.792 252.032 252.032 0 0 0-251.52 251.968c0 13.184 1.216 26.688 3.456 40.32l-33.088 30.336-159.744-160a84.096 84.096 0 0 0-16.256-95.488l-58.88-58.944a27.904 27.904 0 0 0-39.488 0L72.896 151.424a27.968 27.968 0 0 0 0 39.616l58.88 58.88a83.2 83.2 0 0 0 95.36 16.384l157.888 158.208-271.232 248.576a167.04 167.04 0 0 0-49.088 118.784c0 44.8 17.408 87.04 49.088 118.72a166.4 166.4 0 0 0 118.592 49.216c44.8 0 86.912-17.472 119.36-50.112l190.72-208.768 225.728 226.048c21.12 21.184 49.152 32.832 79.04 32.832a110.72 110.72 0 0 0 78.976-32.832c21.12-21.12 32.768-49.216 32.768-79.104a111.36 111.36 0 0 0-32.704-79.168L725.12 567.232zM210.752 210.368a28.544 28.544 0 0 1-39.488 0l-39.104-39.168 39.488-39.552 39.104 39.104c10.88 10.944 10.88 28.736 0 39.616z m100.672 660.608c-42.24 42.304-115.84 42.368-158.08 0-21.12-21.12-32.768-49.216-32.768-79.104 0-29.888 11.648-58.048 31.872-78.336l356.224-326.464 0.64-0.832a27.52 27.52 0 0 0 4.928-6.528l1.28-2.496 0.896-2.56a28.8 28.8 0 0 0 1.28-7.936l-0.128-2.624a26.304 26.304 0 0 0-0.384-2.88l-0.128-1.088a197.76 197.76 0 0 1-5.184-44.16c0-108.864 89.728-196.48 198.272-195.904l-9.28 9.28a137.024 137.024 0 0 0 0 193.28c25.792 25.792 60.032 40.064 96.512 40.064 36.48 0 70.72-14.272 96.448-40.064l9.28-9.28v2.624A195.968 195.968 0 0 1 707.52 512c-14.464 0-29.248-1.728-44.032-5.12l-1.088-0.192a28.864 28.864 0 0 0-8.384-0.256 28.16 28.16 0 0 0-5.312 1.152l-2.176 0.704a26.88 26.88 0 0 0-2.752 1.408l-2.048 1.152a29.12 29.12 0 0 0-4.352 3.648l-0.832 0.64-325.12 355.904z m575.296 16.448a57.152 57.152 0 0 1-79.04 0l-217.088-217.472 79.04-79.168 217.088 217.472a55.68 55.68 0 0 1 16.384 39.616c0 14.912-5.76 28.992-16.384 39.552zM232.384 735.872a56 56 0 0 0 0 112 55.936 55.936 0 1 0 0-112z"
          fill="#ffffff" p-id="9791"></path>
</svg>