<?xml version="1.0" standalone="no"?><!DOCTYPE svg PUBLIC "-//W3C//DTD SVG 1.1//EN" "http://www.w3.org/Graphics/SVG/1.1/DTD/svg11.dtd"><svg t="1591618455961" class="icon" viewBox="0 0 1188 1024" version="1.1" xmlns="http://www.w3.org/2000/svg" p-id="20473" xmlns:xlink="http://www.w3.org/1999/xlink" width="116.015625" height="100"><defs><style type="text/css"></style></defs><path d="M770.677757 933.988658H161.826843a73.557656 73.557656 0 0 1-73.428607-73.428608v-717.832388c0-28.906868 33.552615-53.555135 73.428607-53.555135h252.935098c44.650788 0 92.269691 30.455451 101.625709 65.298551 20.067045 72.976938 102.141903 130.339004 187.120353 130.339004h269.130686a73.477001 73.477001 0 0 1 73.428608 73.428607v200.928545a44.199118 44.199118 0 1 0 88.398235 0V358.238689a162.004285 162.004285 0 0 0-161.826843-161.826843H703.508003c-44.650788 0-92.269691-30.455451-101.625709-65.29855C581.879773 57.942785 499.675866 0.645243 414.761941 0.645243h-252.935098C72.654316 0.645243 0 64.395211 0 142.727662v717.832388a162.004285 162.004285 0 0 0 161.826843 161.891368h608.850914a44.263642 44.263642 0 1 0 0-88.527284z m0 0" fill="#ffffff" p-id="20474"></path><path d="M1145.047511 758.676244H1013.030876V626.530561a42.71506 42.71506 0 0 0-42.586011-42.586012h-0.90334a42.71506 42.71506 0 0 0-42.586011 42.586012v132.016635h-132.145684a42.71506 42.71506 0 0 0-42.586011 42.586011v0.90334a42.71506 42.71506 0 0 0 42.586011 42.586011h132.016635v132.016635a42.71506 42.71506 0 0 0 42.586011 42.586012h0.90334a42.71506 42.71506 0 0 0 42.586011-42.586012v-131.887586h132.016636a42.71506 42.71506 0 0 0 42.586011-42.586012v-0.903339a42.521487 42.521487 0 0 0-42.456963-42.586012z m0 0" fill="#ffffff" p-id="20475"></path></svg>