<?xml version="1.0" standalone="no"?><!DOCTYPE svg PUBLIC "-//W3C//DTD SVG 1.1//EN"
        "http://www.w3.org/Graphics/SVG/1.1/DTD/svg11.dtd">
<svg t="1591618365998" class="icon" viewBox="0 0 1024 1024" version="1.1" xmlns="http://www.w3.org/2000/svg"
     p-id="16552" xmlns:xlink="http://www.w3.org/1999/xlink" width="100" height="100">
    <defs>
        <style type="text/css"></style>
    </defs>
    <path d="M972.8 460.8c-30.72 0-51.2-20.48-51.2-51.2V153.6c0-30.72-20.48-51.2-51.2-51.2H153.6c-30.72 0-51.2 20.48-51.2 51.2v716.8c0 30.72 20.48 51.2 51.2 51.2h256c30.72 0 51.2 20.48 51.2 51.2s-20.48 51.2-51.2 51.2H102.4c-56.32 0-102.4-46.08-102.4-102.4V102.4C0 46.08 46.08 0 102.4 0h819.2c56.32 0 102.4 46.08 102.4 102.4v307.2c0 30.72-20.48 51.2-51.2 51.2z"
          p-id="16553" fill="#ffffff"></path>
    <path d="M665.6 768h307.2c30.72 0 51.2 20.48 51.2 51.2s-20.48 51.2-51.2 51.2h-307.2c-30.72 0-51.2-20.48-51.2-51.2s20.48-51.2 51.2-51.2z m153.6-153.6c30.72 0 51.2 20.48 51.2 51.2v307.2c0 30.72-20.48 51.2-51.2 51.2s-51.2-20.48-51.2-51.2v-307.2c0-30.72 20.48-51.2 51.2-51.2z"
          p-id="16554" fill="#ffffff"></path>
</svg>