<?xml version="1.0" standalone="no"?><!DOCTYPE svg PUBLIC "-//W3C//DTD SVG 1.1//EN" "http://www.w3.org/Graphics/SVG/1.1/DTD/svg11.dtd"><svg t="1591618521963" class="icon" viewBox="0 0 1024 1024" version="1.1" xmlns="http://www.w3.org/2000/svg" p-id="21999" xmlns:xlink="http://www.w3.org/1999/xlink" width="100" height="100"><defs><style type="text/css"></style></defs><path d="M413.867403 670.334812a139.134956 139.134956 0 0 1 12.330574 54.228927 126.036388 126.036388 0 0 1-23.423824 71.466131L284.631039 914.343649A126.036388 126.036388 0 0 1 213.335573 937.724807a128.852367 128.852367 0 0 1-127.99904-127.99904 126.036388 126.036388 0 0 1 23.12516-71.59413l118.31378-118.313779a126.036388 126.036388 0 0 1 71.46613-23.423824 140.201615 140.201615 0 0 1 55.466251 12.330574l62.847529-62.847529a211.710412 211.710412 0 0 0-117.076456-35.754398 204.798464 204.798464 0 0 0-126.932381 43.135676L43.139516 682.665387A212.862404 212.862404 0 0 0 213.335573 1023.99616a204.798464 204.798464 0 0 0 126.932382-43.135676l127.99904-127.99904a207.614443 207.614443 0 0 0 43.135676-126.932382 211.710412 211.710412 0 0 0-35.754398-117.076455zM810.664427 0.00384a204.798464 204.798464 0 0 0-126.932382 43.135676l-127.99904 127.99904a207.614443 207.614443 0 0 0-43.135676 126.932382 211.710412 211.710412 0 0 0 35.754398 117.076455l62.847529-62.71953a140.201615 140.201615 0 0 1-12.330574-55.46625 126.036388 126.036388 0 0 1 23.423824-71.466131l118.313779-118.313779a126.036388 126.036388 0 0 1 71.466131-23.423825 128.852367 128.852367 0 0 1 127.99904 127.99904 126.036388 126.036388 0 0 1-23.423824 71.466131l-118.143114 118.484445a126.036388 126.036388 0 0 1-71.466131 23.423824 140.201615 140.201615 0 0 1-55.46625-12.330574l-62.847529 62.847529a211.710412 211.710412 0 0 0 117.076455 35.754398 204.798464 204.798464 0 0 0 126.932382-43.135676l127.99904-127.99904A207.657109 207.657109 0 0 0 1023.99616 213.335573a214.057061 214.057061 0 0 0-213.331733-213.331733z" fill="#d81e06" p-id="22000"></path><path d="M322.860085 347.521234a42.666347 42.666347 0 0 1-30.805102-12.330575L184.834454 226.860805a43.135676 43.135676 0 0 1 0-61.610204 41.685021 41.685021 0 0 1 60.37288 0l108.457854 108.457853a43.135676 43.135676 0 0 1 0 61.610204 48.639635 48.639635 0 0 1-30.805103 12.202576zM422.65667 326.529391a43.647673 43.647673 0 0 1-43.135676-43.135676v-120.745762a43.135676 43.135676 0 1 1 86.271353 0v120.745762a42.666347 42.666347 0 0 1-43.135677 43.135676zM306.817539 442.411189h-120.745761a43.135676 43.135676 0 1 1 0-86.271353h120.745761a43.135676 43.135676 0 1 1 0 86.271353zM844.114843 858.920065a42.666347 42.666347 0 0 1-30.805103-12.330574L704.851887 738.131637a42.666347 42.666347 0 0 1 60.372881-60.37288l108.457853 108.457853a41.685021 41.685021 0 0 1 0 60.372881 38.399712 38.399712 0 0 1-29.567778 12.330574zM635.860404 892.157149a43.647673 43.647673 0 0 1-43.135676-43.135677v-120.745761a43.135676 43.135676 0 0 1 86.271353 0v120.745761a42.666347 42.666347 0 0 1-43.135677 43.135677zM872.40263 656.809581h-120.745761a43.135676 43.135676 0 0 1 0-86.271353h120.745761a43.135676 43.135676 0 0 1 0 86.271353z" fill="#d81e06" p-id="22001"></path></svg>