<?xml version="1.0" standalone="no"?><!DOCTYPE svg PUBLIC "-//W3C//DTD SVG 1.1//EN" "http://www.w3.org/Graphics/SVG/1.1/DTD/svg11.dtd"><svg t="1591618884007" class="icon" viewBox="0 0 1024 1024" version="1.1" xmlns="http://www.w3.org/2000/svg" p-id="5110" xmlns:xlink="http://www.w3.org/1999/xlink" width="100" height="100"><defs><style type="text/css"></style></defs><path d="M512 64C265.6 64 64 265.6 64 512s201.6 448 448 448 448-201.6 448-448S758.4 64 512 64zM512 896C300.8 896 128 723.2 128 512S300.8 128 512 128s384 172.8 384 384S723.2 896 512 896z" p-id="5111" fill="#1afa29"></path><path d="M656 368m-48 0a1.5 1.5 0 1 0 96 0 1.5 1.5 0 1 0-96 0Z" p-id="5112" fill="#1afa29"></path><path d="M368 368m-48 0a1.5 1.5 0 1 0 96 0 1.5 1.5 0 1 0-96 0Z" p-id="5113" fill="#1afa29"></path><path d="M736 544c-16-6.4-35.2 3.2-38.4 22.4C672 646.4 595.2 704 512 704s-160-57.6-185.6-137.6C323.2 550.4 304 540.8 288 544c-16 6.4-25.6 22.4-22.4 38.4 32 108.8 134.4 182.4 246.4 182.4s214.4-73.6 246.4-182.4C761.6 569.6 752 550.4 736 544z" p-id="5114" fill="#1afa29"></path></svg>