<?xml version="1.0" standalone="no"?><!DOCTYPE svg PUBLIC "-//W3C//DTD SVG 1.1//EN"
        "http://www.w3.org/Graphics/SVG/1.1/DTD/svg11.dtd">
<svg t="1591620508487" class="icon" viewBox="0 0 1024 1024" version="1.1" xmlns="http://www.w3.org/2000/svg"
     p-id="23272" xmlns:xlink="http://www.w3.org/1999/xlink" width="100" height="100">
    <defs>
        <style type="text/css"></style>
    </defs>
    <path d="M800.396851 72.451102h-576.745607c-85.621053 0-155.277506 69.656453-155.277505 155.277506v576.744583c0 85.621053 69.656453 155.277506 155.277505 155.277506h576.744584c85.61082 0 155.277506-69.656453 155.277505-155.277506v-576.745606c0.001023-85.621053-69.665663-155.276483-155.276482-155.276483zM667.301554 161.180959c12.239765 0 22.182208 9.953699 22.182208 22.182209v155.277506c0 12.228509-9.943466 22.182208-22.182208 22.182208H356.746542c-12.239765 0-22.182208-9.953699-22.182209-22.182208V183.363168c0-12.228509 9.943466-22.182208 22.182209-22.182209H667.301554z m199.642946 643.292232c0 36.696784-29.850865 66.547649-66.547649 66.547649h-576.745607c-36.696784 0-66.547649-29.850865-66.547648-66.547649v-576.745606c0-36.696784 29.850865-66.547649 66.547648-66.547649h24.413016a110.983697 110.983697 0 0 0-2.230807 22.182208v155.277506c0 61.153802 49.759287 110.912066 110.912066 110.912066H667.301554c61.153802 0 110.912066-49.759287 110.912065-110.912066v-155.276482c0-7.594979-0.769526-15.012925-2.230807-22.182209h24.413016c36.696784 0 66.547649 29.850865 66.547648 66.547649v576.744583z"
          p-id="23273" fill="#ffffff"></path>
    <path d="M578.570673 316.457442h44.36544c12.251022 0 22.182208-9.931187 22.182209-22.182209v-66.547648c0-12.251022-9.931187-22.182208-22.182209-22.182209H578.570673c-12.251022 0-22.182208 9.931187-22.182208 22.182209v66.547648c0 12.249999 9.931187 22.182208 22.182208 22.182209z"
          p-id="23274" fill="#ffffff"></path>
</svg>