<?xml version="1.0" standalone="no"?><!DOCTYPE svg PUBLIC "-//W3C//DTD SVG 1.1//EN"
        "http://www.w3.org/Graphics/SVG/1.1/DTD/svg11.dtd">
<svg t="1593056835161" class="icon" viewBox="0 0 1024 1024" version="1.1" xmlns="http://www.w3.org/2000/svg" p-id="2335"
     xmlns:xlink="http://www.w3.org/1999/xlink" width="100" height="100">
    <defs>
        <style type="text/css"></style>
    </defs>
    <path d="M785.183686 139.674311c-14.716642-25.494575-50.839308-46.344043-80.272592-46.344044H326.227815c-29.433284 0-65.55595 20.849468-80.272592 46.344044L56.618935 467.614608c-14.716642 25.494575-14.716642 67.193511 0 92.688087l189.336288 327.951c14.716642 25.494575 50.839308 46.344043 80.272592 46.344043h378.683279c29.433284 0 65.55595-20.849468 80.272592-46.344043L974.530677 560.302695c14.716642-25.494575 14.716642-67.193511 0-92.688087L785.183686 139.674311zM741.932814 813.332609c-14.716642 25.494575-50.839308 46.344043-80.272593 46.344043H369.478688c-29.433284 0-65.55595-20.849468-80.272592-46.344043l-146.074712-253.019211c-14.716642-25.494575-14.716642-67.193511 0-92.688087L289.206096 214.595397c14.716642-25.494575 50.839308-46.344043 80.272592-46.344043H661.660221c29.433284 0 65.55595 20.849468 80.272593 46.344043l146.096118 253.019211c14.716642 25.494575 14.716642 67.193511 0 92.688087L741.932814 813.332609z"
          fill="#e8e8e8" p-id="2336"></path>
    <path d="M515.574806 358.743567c-85.731129 0-155.225788 69.494659-155.225787 155.225787s69.494659 155.225788 155.225787 155.225788 155.225788-69.494659 155.225788-155.225788-69.494659-155.225788-155.225788-155.225787z m0 235.519786c-44.278362 0-80.304701-36.026339-80.304701-80.304702s36.026339-80.304701 80.304701-80.304701 80.304701 36.026339 80.304701 80.304701-36.026339 80.304701-80.304701 80.304702z"
          fill="#e8e8e8" p-id="2337"></path>
</svg>
