<?xml version="1.0" standalone="no"?><!DOCTYPE svg PUBLIC "-//W3C//DTD SVG 1.1//EN"
        "http://www.w3.org/Graphics/SVG/1.1/DTD/svg11.dtd">
<svg t="1596102536840" class="icon" viewBox="0 0 1024 1024" version="1.1" xmlns="http://www.w3.org/2000/svg" p-id="9561"
     xmlns:xlink="http://www.w3.org/1999/xlink" width="200" height="200">
    <defs>
        <style type="text/css"></style>
    </defs>
    <path d="M316.16 97.42c10.66-43.08 67.25-44.37 81.16-4.69L547.76 741.31l94.54-334.81c10.4-36.96 56.85-43.07 76.29-12.29l97.06 198.82h164.4c23.97 0 43.4 19.46 43.4 43.46 0 25.36-20.53 45.92-45.86 45.92H789.56c-14.15 0.01-27.37-7.34-35.31-19.62l-60.51-123.52-109.17 386.74c-11.86 41.96-67.17 42.27-80.77 3.13L355.99 292.09 267.46 648.98c-4.44 17.89-18.93 31.07-36.46 33.16l-188.14 0.21c-23.66 0.03-42.86-19.17-42.86-42.87v-4.68c0-23.07 18.68-41.78 41.72-41.78h151.46L316.16 97.42z"
          p-id="9562" fill="#1afa29"></path>
</svg>