<?xml version="1.0" standalone="no"?><!DOCTYPE svg PUBLIC "-//W3C//DTD SVG 1.1//EN" "http://www.w3.org/Graphics/SVG/1.1/DTD/svg11.dtd"><svg t="1598085443485" class="icon" viewBox="0 0 1024 1024" version="1.1" xmlns="http://www.w3.org/2000/svg" p-id="10871" xmlns:xlink="http://www.w3.org/1999/xlink" width="200" height="200"><defs><style type="text/css"></style></defs><path d="M973.120312 512.129128c0 42.402767-34.376961 76.776116-76.788758 76.776116H128.50538c-42.400961 0-76.777922-34.375155-76.777921-76.776116 0-42.409991 34.376961-76.776116 76.777921-76.776116h767.826174c42.411797 0 76.788758 34.366125 76.788758 76.776116z m-76.788758-127.972233H128.50538C57.831694 384.156895 0.542177 441.448218 0.542177 512.129128c0 70.67188 57.291323 127.963203 127.963203 127.963203h767.826174c70.682716 0 127.974039-57.291323 127.974039-127.963203 0-70.68091-57.291323-127.972233-127.974039-127.972233zM255.901504 255.948078c18.103213 0 25.592641-7.500264 25.59264-25.592641 0-18.103213-7.487622-25.592641-25.59264-25.59264H153.529135c-18.105019 0-25.592641 7.487622-25.59264 25.59264 0 18.092377 7.487622 25.592641 25.59264 25.592641h102.372369zM460.631793 255.948078c18.094183 0 25.592641-7.500264 25.59264-25.592641 0-18.103213-7.498458-25.592641-25.59264-25.59264h-102.372369c-18.103213 0-25.592641 7.487622-25.59264 25.59264 0 18.092377 7.487622 25.592641 25.59264 25.592641h102.372369zM665.363887 255.948078c18.103213 0 25.603477-7.500264 25.603477-25.592641 0-18.103213-7.498458-25.592641-25.603477-25.59264h-102.372368c-18.103213 0-25.603477 7.487622-25.603477 25.59264 0 18.092377 7.498458 25.592641 25.603477 25.592641h102.372368zM870.095982 255.948078c18.105019 0 25.592641-7.500264 25.592641-25.592641 0-18.103213-7.487622-25.592641-25.592641-25.59264h-102.370562c-18.105019 0-25.592641 7.487622-25.592641 25.59264 0 18.092377 7.487622 25.592641 25.592641 25.592641h102.370562zM767.72542 0.001806c-18.105019 0-25.592641 7.498458-25.592641 25.603477 0 18.092377 7.487622 25.592641 25.592641 25.59264h102.370562c18.105019 0 25.592641-7.500264 25.592641-25.59264 0-18.105019-7.487622-25.603477-25.592641-25.603477h-102.370562zM153.530941 0.001806c-18.105019 0-25.592641 7.498458-25.59264 25.603477 0 18.092377 7.487622 25.592641 25.59264 25.59264h102.372369c18.103213 0 25.592641-7.500264 25.59264-25.59264 0-18.105019-7.487622-25.603477-25.59264-25.603477H153.530941zM358.26123 0.001806c-18.103213 0-25.592641 7.498458-25.59264 25.603477 0 18.092377 7.487622 25.592641 25.59264 25.59264h102.372369c18.094183 0 25.592641-7.500264 25.59264-25.59264 0-18.105019-7.498458-25.603477-25.59264-25.603477h-102.372369zM562.993325 0.001806c-18.103213 0-25.603477 7.498458-25.603477 25.603477 0 18.092377 7.498458 25.592641 25.603477 25.59264h102.372368c18.103213 0 25.603477-7.500264 25.603477-25.59264 0-18.105019-7.498458-25.603477-25.603477-25.603477h-102.372368zM65.075508 172.014836C43.542726 141.269715 47.398508 99.479177 74.181294 73.189426c12.909194-12.683446 13.004912-23.277365 0.332302-36.197396-12.683446-12.918224-23.279171-13.004912-36.197396-0.332302-44.629549 43.825885-51.04622 113.479188-15.17029 164.716843 10.380813 14.825347 20.813999 16.669259 35.641152 6.288447 14.825347-10.379007 16.669259-20.824835 6.288446-35.650182zM958.688671 172.014836c21.521946-30.745121 17.677-72.535659-9.105787-98.82541-12.909194-12.683446-13.004912-23.277365-0.332301-36.197396 12.683446-12.918224 23.279171-13.004912 36.197396-0.332302 44.629549 43.825885 51.04622 113.479188 15.168484 164.716843-10.380813 14.825347-20.813999 16.669259-35.641152 6.288447-14.823541-10.379007-16.665647-20.824835-6.28664-35.650182zM767.72542 768.064564c-18.105019 0-25.592641 7.498458-25.592641 25.592641 0 18.103213 7.487622 25.592641 25.592641 25.59264h102.370562c18.105019 0 25.592641-7.487622 25.592641-25.59264 0-18.094183-7.487622-25.592641-25.592641-25.592641h-102.370562zM255.901504 1024c18.103213 0 25.592641-7.487622 25.59264-25.592641 0-18.094183-7.487622-25.592641-25.59264-25.59264H153.529135c-18.105019 0-25.592641 7.498458-25.59264 25.59264 0 18.103213 7.487622 25.592641 25.59264 25.592641h102.372369zM460.631793 1024c18.094183 0 25.592641-7.487622 25.59264-25.592641 0-18.094183-7.498458-25.592641-25.59264-25.59264h-102.372369c-18.103213 0-25.592641 7.498458-25.59264 25.59264 0 18.103213 7.487622 25.592641 25.59264 25.592641h102.372369zM153.530941 768.064564c-18.105019 0-25.592641 7.498458-25.59264 25.592641 0 18.103213 7.487622 25.592641 25.59264 25.59264h102.372369c18.103213 0 25.592641-7.487622 25.59264-25.59264 0-18.094183-7.487622-25.592641-25.59264-25.592641H153.530941zM358.26123 768.064564c-18.103213 0-25.592641 7.498458-25.59264 25.592641 0 18.103213 7.487622 25.592641 25.59264 25.59264h102.372369c18.094183 0 25.592641-7.487622 25.59264-25.59264 0-18.094183-7.498458-25.592641-25.59264-25.592641h-102.372369zM562.993325 768.064564c-18.103213 0-25.603477 7.498458-25.603477 25.592641 0 18.103213 7.498458 25.592641 25.603477 25.59264h102.372368c18.103213 0 25.603477-7.487622 25.603477-25.59264 0-18.094183-7.498458-25.592641-25.603477-25.592641h-102.372368zM870.095982 1024c18.105019 0 25.592641-7.487622 25.592641-25.592641 0-18.094183-7.487622-25.592641-25.592641-25.59264h-102.370562c-18.105019 0-25.592641 7.498458-25.592641 25.59264 0 18.103213 7.487622 25.592641 25.592641 25.592641h102.370562zM665.363887 1024c18.103213 0 25.603477-7.487622 25.603477-25.592641 0-18.094183-7.498458-25.592641-25.603477-25.59264h-102.372368c-18.103213 0-25.603477 7.498458-25.603477 25.59264 0 18.103213 7.498458 25.592641 25.603477 25.592641h102.372368zM65.075508 940.077594c-21.532782-30.745121-17.677-72.535659 9.105786-98.83444 12.909194-12.674416 13.004912-23.279171 0.332302-36.188366-12.683446-12.92003-23.279171-13.015748-36.197396-0.332302-44.629549 43.815049-51.04622 113.477382-15.17029 164.716843 10.380813 14.814511 20.813999 16.658423 35.641152 6.275805 14.825347-10.377201 16.669259-20.812193 6.288446-35.63754zM958.688671 940.077594c21.521946-30.745121 17.677-72.535659-9.105787-98.83444-12.909194-12.674416-13.004912-23.279171-0.332301-36.188366 12.683446-12.92003 23.279171-13.015748 36.197396-0.332302 44.629549 43.815049 51.04622 113.477382 15.168484 164.716843-10.380813 14.814511-20.813999 16.658423-35.641152 6.275805-14.823541-10.377201-16.665647-20.812193-6.28664-35.63754z" fill="#ffffff" p-id="10872"></path></svg>