<?xml version="1.0" encoding="UTF-8" standalone="no"?>
<svg
   xmlns:dc="http://purl.org/dc/elements/1.1/"
   xmlns:cc="http://creativecommons.org/ns#"
   xmlns:rdf="http://www.w3.org/1999/02/22-rdf-syntax-ns#"
   xmlns:svg="http://www.w3.org/2000/svg"
   xmlns="http://www.w3.org/2000/svg"
   xmlns:sodipodi="http://sodipodi.sourceforge.net/DTD/sodipodi-0.dtd"
   xmlns:inkscape="http://www.inkscape.org/namespaces/inkscape"
   t="1597498638791"
   class="icon"
   viewBox="0 0 1024 1024"
   version="1.1"
   p-id="5347"
   width="200"
   height="200"
   id="svg10"
   sodipodi:docname="switch-off.svg"
   inkscape:version="1.0 (4035a4fb49, 2020-05-01)">
  <metadata
     id="metadata14">
    <rdf:RDF>
      <cc:Work
         rdf:about="">
        <dc:format>image/svg+xml</dc:format>
        <dc:type
           rdf:resource="http://purl.org/dc/dcmitype/StillImage" />
        <dc:title />
      </cc:Work>
    </rdf:RDF>
  </metadata>
  <sodipodi:namedview
     inkscape:document-rotation="0"
     pagecolor="#ffffff"
     bordercolor="#666666"
     borderopacity="1"
     objecttolerance="10"
     gridtolerance="10"
     guidetolerance="10"
     inkscape:pageopacity="0"
     inkscape:pageshadow="2"
     inkscape:window-width="1872"
     inkscape:window-height="1056"
     id="namedview12"
     showgrid="false"
     inkscape:pagecheckerboard="true"
     inkscape:zoom="3.575"
     inkscape:cx="112.31891"
     inkscape:cy="102.61857"
     inkscape:window-x="48"
     inkscape:window-y="24"
     inkscape:window-maximized="1"
     inkscape:current-layer="svg10" />
  <defs
     id="defs4">
    <style
       type="text/css"
       id="style2" />
  </defs>
  <path
     inkscape:transform-center-y="0.51196584"
     inkscape:transform-center-x="63.329181"
     style="fill:#ff0000;stroke-width:1.43217"
     d="m 299.45355,365.32345 c 52.59544,8.07201 96.78996,42.78697 116.91444,91.83658 l 5.37111,13.09121 148.07627,0.3743 148.07624,0.37431 7.64709,4.21291 c 9.09139,5.00861 13.80205,10.22461 18.59626,20.59119 3.02334,6.53738 3.45216,9.18072 2.90313,17.89544 -0.40085,6.3632 -1.75101,12.39123 -3.57477,15.96049 -4.4246,8.65933 -14.19428,17.55691 -22.86489,20.82384 -7.44903,2.80665 -11.22118,2.88567 -153.43708,3.21392 l -145.80031,0.33653 -1.78932,6.09086 c -3.17938,10.82256 -15.43755,33.03294 -24.73252,44.81245 -21.44792,27.18094 -52.7295,46.44423 -86.83218,53.47157 -14.74354,3.03811 -43.42206,2.99574 -58.00319,-0.0857 -52.43025,-11.08009 -95.07024,-48.35184 -111.10117,-97.11398 -13.01032,-39.57397 -10.7802,-77.06565 6.73559,-113.23561 24.25872,-50.09409 72.33615,-81.39726 128.03459,-83.36308 9.45155,-0.33363 21.05291,-0.0128 25.78071,0.71274 z m -40.48851,85.8182 c -38.69746,12.14199 -55.61299,55.69649 -36.32774,93.53723 7.43058,14.57997 22.34587,25.85646 40.34104,30.49927 27.96829,7.21594 58.12117,-5.12316 72.40377,-29.62893 10.48747,-17.99405 10.72418,-45.0929 0.56711,-64.92015 -3.85137,-7.51815 -14.74536,-18.888 -22.33867,-23.3145 -15.45467,-9.00914 -37.62463,-11.51357 -54.64551,-6.17292 z"
     id="path867" />
  <path
     style="fill:#ff0000;stroke-width:1.43217"
     d="m 266.13655,804.78243 c -44.24828,-5.0922 -92.25565,-22.4738 -128.8951,-46.6679 C -13.391268,658.64767 -43.751667,455.56718 71.388237,317.62292 116.34494,263.76219 177.35062,228.66856 250.38271,214.65601 l 16.46993,-3.16005 233.44336,-0.51295 c 159.06751,-0.34949 238.91887,-0.022 250.62939,1.02808 90.56097,8.12041 172.02089,56.60818 223.02418,132.75178 11.10405,16.57736 28.29263,51.74017 34.55563,70.69056 36.2189,109.59019 6.162,228.0884 -78.34679,308.87933 -47.11306,45.04037 -107.86237,73.25877 -173.50436,80.59367 -15.97783,1.7854 -474.92325,1.6507 -490.5175,-0.1439 z m 495.53009,-84.84124 c 86.71733,-16.40397 152.71019,-79.09638 172.8237,-164.18033 5.26823,-22.28577 6.2165,-58.62112 2.14907,-82.34966 C 921.71538,386.34738 858.18406,319.93445 769.82182,299.02712 l -13.16777,-3.11562 -237.73987,-0.44943 c -212.07799,-0.40098 -239.32642,-0.20269 -252.43829,1.83689 -88.42426,13.75467 -158.4757,80.72406 -177.475902,169.66748 -3.707838,17.35709 -3.71068,65.68561 -0.0049,83.06575 6.273782,29.42388 19.457642,59.70571 36.342552,83.47474 10.666,15.01466 33.71648,38.0651 48.7311,48.73114 31.64704,22.48125 70.25313,36.6785 107.82163,39.65107 7.48308,0.59208 115.43274,0.97511 239.88811,0.85115 211.20302,-0.21043 227.18919,-0.3968 239.88813,-2.7991 z"
     id="path869" />
</svg>
