<?xml version="1.0" standalone="no"?><!DOCTYPE svg PUBLIC "-//W3C//DTD SVG 1.1//EN" "http://www.w3.org/Graphics/SVG/1.1/DTD/svg11.dtd"><svg t="1597498638791" class="icon" viewBox="0 0 1024 1024" version="1.1" xmlns="http://www.w3.org/2000/svg" p-id="5347" xmlns:xlink="http://www.w3.org/1999/xlink" width="200" height="200"><defs><style type="text/css"></style></defs><path d="M298.666667 810.666667C134.4 810.666667 0 676.266667 0 512s134.4-298.666667 298.666667-298.666667h426.666666c164.266667 0 298.666667 134.4 298.666667 298.666667s-134.4 298.666667-298.666667 298.666667H298.666667z m0-512C181.333333 298.666667 85.333333 394.666667 85.333333 512s96 213.333333 213.333334 213.333333h426.666666c117.333333 0 213.333333-96 213.333334-213.333333s-96-213.333333-213.333334-213.333333H298.666667z" fill="#1afa29" p-id="5348"></path><path d="M298.666667 554.666667c-23.466667 0-42.666667-19.2-42.666667-42.666667s19.2-42.666667 42.666667-42.666667h283.733333c19.2-61.866667 74.666667-106.666667 142.933333-106.666666 83.2 0 149.333333 66.133333 149.333334 149.333333s-66.133333 149.333333-149.333334 149.333333c-68.266667 0-123.733333-44.8-142.933333-106.666666H298.666667z m426.666666-106.666667c-36.266667 0-64 27.733333-64 64s27.733333 64 64 64 64-27.733333 64-64-27.733333-64-64-64z" fill="#1afa29" p-id="5349"></path></svg>