<?xml version="1.0" standalone="no"?><!DOCTYPE svg PUBLIC "-//W3C//DTD SVG 1.1//EN"
        "http://www.w3.org/Graphics/SVG/1.1/DTD/svg11.dtd">
<svg t="1591619067007" class="icon" viewBox="0 0 1024 1024" version="1.1" xmlns="http://www.w3.org/2000/svg"
     p-id="14595" xmlns:xlink="http://www.w3.org/1999/xlink" width="100" height="100">
    <defs>
        <style type="text/css"></style>
    </defs>
    <path d="M512 243.2" p-id="14596" fill="#ffffff"></path>
    <path d="M983.04 778.24c0 89.6-74.24 163.84-163.84 163.84-46.08 0-87.04-17.92-117.76-48.64-56.32 30.72-120.32 48.64-189.44 48.64s-133.12-17.92-189.44-48.64c-30.72 30.72-71.68 48.64-117.76 48.64-89.6 0-163.84-74.24-163.84-163.84 0-64 35.84-117.76 89.6-145.92-5.12-25.6-7.68-51.2-7.68-79.36 0-163.84 102.4-304.64 245.76-360.96 7.68-84.48 76.8-151.04 161.28-151.04 89.6 0 163.84 74.24 163.84 163.84 0 2.56 0 2.56 0 5.12 122.88 66.56 204.8 194.56 204.8 343.04 0 28.16-2.56 53.76-7.68 79.36C944.64 660.48 983.04 714.24 983.04 778.24zM122.88 778.24c0 46.08 35.84 81.92 81.92 81.92s81.92-35.84 81.92-81.92c0-46.08-35.84-81.92-81.92-81.92S122.88 734.72 122.88 778.24zM532.48 125.44c-46.08 0-81.92 35.84-81.92 81.92s35.84 81.92 81.92 81.92c46.08 0 81.92-35.84 81.92-81.92S578.56 125.44 532.48 125.44zM670.72 291.84c-28.16 46.08-79.36 76.8-138.24 76.8-66.56 0-122.88-38.4-148.48-94.72-104.96 48.64-179.2 156.16-179.2 279.04 0 20.48 2.56 40.96 5.12 61.44 87.04 2.56 156.16 74.24 156.16 163.84 0 15.36-2.56 28.16-5.12 43.52 43.52 25.6 94.72 38.4 148.48 38.4s104.96-15.36 148.48-38.4c-2.56-12.8-5.12-28.16-5.12-43.52 0-87.04 69.12-158.72 156.16-163.84 5.12-20.48 5.12-40.96 5.12-61.44C819.2 442.88 760.32 345.6 670.72 291.84zM819.2 696.32c-46.08 0-81.92 35.84-81.92 81.92 0 46.08 35.84 81.92 81.92 81.92 46.08 0 81.92-35.84 81.92-81.92C901.12 734.72 862.72 696.32 819.2 696.32z"
          p-id="14597" fill="#ffffff"></path>
</svg>