<?xml version="1.0" standalone="no"?><!DOCTYPE svg PUBLIC "-//W3C//DTD SVG 1.1//EN" "http://www.w3.org/Graphics/SVG/1.1/DTD/svg11.dtd"><svg t="1591619233182" class="icon" viewBox="0 0 1024 1024" version="1.1" xmlns="http://www.w3.org/2000/svg" p-id="20229" xmlns:xlink="http://www.w3.org/1999/xlink" width="100" height="100"><defs><style type="text/css"></style></defs><path d="M881.612 221.694h-77.775v-77.857c0-63.411-51.589-115-115-115h-545c-63.411 0-115 51.589-115 115v545c0 63.411 51.589 115 115 115h77.775v77.857c0 63.411 51.589 115 115 115h545c63.411 0 115-51.589 115-115v-545c0-63.411-51.589-115-115-115z m-660 115v397.143h-77.775c-24.813 0-45-20.187-45-45v-545c0-24.813 20.187-45 45-45h545c24.813 0 45 20.187 45 45v77.857H336.612c-63.411 0-115 51.589-115 115z m705 545c0 24.813-20.187 45-45 45h-545c-24.813 0-45-20.187-45-45v-545c0-24.813 20.187-45 45-45h545c24.813 0 45 20.187 45 45v545z" p-id="20230" fill="#ffffff"></path></svg>